<svg width="270" height="65" viewBox="0 0 270 65" fill="none" xmlns="http://www.w3.org/2000/svg">
<path d="M2 32H26" stroke="#3E57B2" stroke-width="3" stroke-linecap="round"/>
<path d="M14 20L14 44" stroke="#3E57B2" stroke-width="3" stroke-linecap="round"/>
<path d="M68.8068 40H64.5455L71.7614 25.4545H77.1591L79.5455 40H75.2841L73.8636 29.4602H73.75L68.8068 40ZM68.9773 34.2614H76.9886L76.4773 37.2159H68.4659L68.9773 34.2614ZM84.0785 40.142C83.302 40.142 82.6201 39.9384 82.033 39.5312C81.4506 39.1241 81.0316 38.5062 80.7759 37.6776C80.525 36.849 80.5037 35.8049 80.712 34.5455C80.9298 33.2292 81.311 32.1591 81.8555 31.3352C82.4047 30.5114 83.0344 29.9077 83.7447 29.5241C84.4596 29.1406 85.177 28.9489 85.8967 28.9489C86.4364 28.9489 86.8933 29.0436 87.2674 29.233C87.6462 29.4176 87.9469 29.6662 88.1694 29.9787C88.3919 30.2865 88.5434 30.625 88.6239 30.9943H88.6808L89.604 25.4545H93.5245L91.1097 40H87.2177L87.516 38.2102H87.4308C87.2177 38.5795 86.9454 38.911 86.614 39.2045C86.2873 39.4934 85.9109 39.723 85.4847 39.8935C85.0586 40.0592 84.5898 40.142 84.0785 40.142ZM86.0245 37.1307C86.3844 37.1307 86.7111 37.0265 87.0046 36.8182C87.2982 36.6051 87.5468 36.3068 87.7504 35.9233C87.954 35.535 88.0984 35.0758 88.1836 34.5455C88.2736 34.0057 88.2807 33.544 88.2049 33.1605C88.1291 32.7723 87.9776 32.4763 87.7504 32.2727C87.5278 32.0644 87.2366 31.9602 86.8768 31.9602C86.5169 31.9602 86.1926 32.0644 85.9038 32.2727C85.6149 32.4763 85.3711 32.7723 85.1722 33.1605C84.9781 33.544 84.8361 34.0057 84.7461 34.5455C84.6561 35.0852 84.6443 35.5492 84.7106 35.9375C84.7816 36.321 84.9284 36.617 85.1509 36.8253C85.3735 37.0289 85.6647 37.1307 86.0245 37.1307ZM96.0458 40.1705C95.3545 40.1705 94.7603 40.0568 94.2631 39.8295C93.7707 39.5975 93.4109 39.2472 93.1836 38.7784C92.9611 38.3049 92.9113 37.7083 93.0344 36.9886C93.1339 36.392 93.3209 35.883 93.5955 35.4616C93.8701 35.0402 94.2111 34.6946 94.6183 34.4247C95.0254 34.1548 95.4824 33.9489 95.989 33.8068C96.5004 33.66 97.0401 33.5653 97.6083 33.5227C98.2238 33.4754 98.7234 33.4162 99.1069 33.3452C99.4904 33.2741 99.7769 33.1771 99.9663 33.054C100.156 32.9309 100.269 32.7652 100.307 32.5568V32.5284C100.35 32.2443 100.274 32.0265 100.08 31.875C99.8905 31.7235 99.6254 31.6477 99.2844 31.6477C98.9151 31.6477 98.5955 31.7282 98.3256 31.8892C98.0605 32.0502 97.8782 32.3011 97.7788 32.642H94.1708C94.3223 31.9792 94.6325 31.3684 95.1012 30.8097C95.5747 30.2462 96.2021 29.7964 96.9833 29.4602C97.7693 29.1193 98.7068 28.9489 99.7958 28.9489C100.572 28.9489 101.254 29.0412 101.841 29.2259C102.428 29.4058 102.914 29.6591 103.297 29.9858C103.685 30.3078 103.958 30.6866 104.114 31.1222C104.275 31.553 104.313 32.0218 104.228 32.5284L102.978 40H99.3129L99.5685 38.4659H99.4833C99.1992 38.8731 98.8796 39.2022 98.5245 39.4531C98.1741 39.7041 97.7906 39.8864 97.3739 40C96.962 40.1136 96.5193 40.1705 96.0458 40.1705ZM97.7504 37.6989C98.0439 37.6989 98.3327 37.6373 98.6168 37.5142C98.9009 37.3911 99.1448 37.2135 99.3484 36.9815C99.552 36.7495 99.6822 36.4678 99.739 36.1364L99.881 35.2273C99.7769 35.2699 99.6609 35.3101 99.533 35.348C99.4099 35.3812 99.2797 35.4143 99.1424 35.4474C99.0098 35.4806 98.8678 35.5114 98.7163 35.5398C98.5695 35.5682 98.418 35.5966 98.2617 35.625C97.9492 35.6723 97.6864 35.7505 97.4734 35.8594C97.2603 35.9635 97.0946 36.0938 96.9762 36.25C96.8578 36.4015 96.7844 36.572 96.756 36.7614C96.7134 37.0597 96.7821 37.2917 96.962 37.4574C97.1467 37.6184 97.4094 37.6989 97.7504 37.6989ZM112.72 35.2273L113.743 29.0909H117.663L115.845 40H112.124L112.464 37.9261H112.351C112.015 38.6222 111.513 39.1667 110.845 39.5597C110.182 39.9479 109.444 40.142 108.629 40.142C107.867 40.142 107.23 39.9669 106.719 39.6165C106.207 39.2661 105.845 38.7831 105.632 38.1676C105.419 37.5521 105.376 36.8466 105.504 36.0511L106.669 29.0909H110.589L109.567 35.2273C109.486 35.767 109.555 36.1908 109.773 36.4986C109.995 36.8063 110.353 36.9602 110.845 36.9602C111.172 36.9602 111.465 36.8916 111.726 36.7543C111.991 36.6122 112.209 36.4134 112.379 36.1577C112.554 35.8973 112.668 35.5871 112.72 35.2273ZM122.413 44.3182C121.315 44.3182 120.401 44.1619 119.672 43.8494C118.947 43.5417 118.412 43.1155 118.066 42.571C117.725 42.0313 117.583 41.411 117.64 40.7102H121.419C121.428 40.947 121.497 41.1364 121.625 41.2784C121.752 41.4205 121.93 41.5223 122.157 41.5838C122.385 41.6454 122.65 41.6761 122.953 41.6761C123.464 41.6761 123.907 41.5507 124.281 41.2997C124.655 41.0535 124.885 40.6108 124.97 39.9716L125.282 38.125H125.169C124.97 38.4943 124.702 38.8092 124.366 39.0696C124.03 39.3253 123.644 39.5218 123.208 39.6591C122.773 39.7917 122.309 39.858 121.816 39.858C121.04 39.858 120.356 39.678 119.764 39.3182C119.177 38.9583 118.751 38.3878 118.485 37.6065C118.225 36.8253 118.199 35.8049 118.407 34.5455C118.625 33.2292 119.009 32.1591 119.558 31.3352C120.107 30.5114 120.739 29.9077 121.454 29.5241C122.169 29.1406 122.886 28.9489 123.606 28.9489C124.146 28.9489 124.603 29.0436 124.977 29.233C125.351 29.4176 125.649 29.6662 125.872 29.9787C126.094 30.2865 126.248 30.625 126.333 30.9943H126.419L126.731 29.0909H130.652L128.833 39.9716C128.691 40.8996 128.329 41.6856 127.747 42.3295C127.169 42.9782 126.421 43.4706 125.502 43.8068C124.589 44.1477 123.559 44.3182 122.413 44.3182ZM123.72 37.0739C124.08 37.0739 124.406 36.9744 124.7 36.7756C124.993 36.572 125.242 36.2831 125.446 35.9091C125.649 35.5303 125.794 35.0758 125.879 34.5455C125.964 34.0057 125.969 33.544 125.893 33.1605C125.817 32.7723 125.668 32.4763 125.446 32.2727C125.223 32.0644 124.932 31.9602 124.572 31.9602C124.212 31.9602 123.888 32.0644 123.599 32.2727C123.31 32.4763 123.066 32.7723 122.868 33.1605C122.669 33.544 122.527 34.0057 122.441 34.5455C122.356 35.0852 122.349 35.5445 122.42 35.9233C122.491 36.2973 122.636 36.5838 122.853 36.7827C123.071 36.9768 123.36 37.0739 123.72 37.0739ZM133.839 40.1705C133.147 40.1705 132.553 40.0568 132.056 39.8295C131.564 39.5975 131.204 39.2472 130.977 38.7784C130.754 38.3049 130.704 37.7083 130.827 36.9886C130.927 36.392 131.114 35.883 131.388 35.4616C131.663 35.0402 132.004 34.6946 132.411 34.4247C132.818 34.1548 133.275 33.9489 133.782 33.8068C134.293 33.66 134.833 33.5653 135.401 33.5227C136.017 33.4754 136.516 33.4162 136.9 33.3452C137.283 33.2741 137.57 33.1771 137.759 33.054C137.949 32.9309 138.062 32.7652 138.1 32.5568V32.5284C138.143 32.2443 138.067 32.0265 137.873 31.875C137.683 31.7235 137.418 31.6477 137.077 31.6477C136.708 31.6477 136.388 31.7282 136.119 31.8892C135.853 32.0502 135.671 32.3011 135.572 32.642H131.964C132.115 31.9792 132.425 31.3684 132.894 30.8097C133.368 30.2462 133.995 29.7964 134.776 29.4602C135.562 29.1193 136.5 28.9489 137.589 28.9489C138.365 28.9489 139.047 29.0412 139.634 29.2259C140.221 29.4058 140.707 29.6591 141.09 29.9858C141.478 30.3078 141.751 30.6866 141.907 31.1222C142.068 31.553 142.106 32.0218 142.021 32.5284L140.771 40H137.106L137.362 38.4659H137.276C136.992 38.8731 136.673 39.2022 136.317 39.4531C135.967 39.7041 135.584 39.8864 135.167 40C134.755 40.1136 134.312 40.1705 133.839 40.1705ZM135.543 37.6989C135.837 37.6989 136.126 37.6373 136.41 37.5142C136.694 37.3911 136.938 37.2135 137.141 36.9815C137.345 36.7495 137.475 36.4678 137.532 36.1364L137.674 35.2273C137.57 35.2699 137.454 35.3101 137.326 35.348C137.203 35.3812 137.073 35.4143 136.935 35.4474C136.803 35.4806 136.661 35.5114 136.509 35.5398C136.362 35.5682 136.211 35.5966 136.055 35.625C135.742 35.6723 135.479 35.7505 135.266 35.8594C135.053 35.9635 134.888 36.0938 134.769 36.25C134.651 36.4015 134.577 36.572 134.549 36.7614C134.506 37.0597 134.575 37.2917 134.755 37.4574C134.94 37.6184 135.202 37.6989 135.543 37.6989ZM139.719 25.1705H142.191C142.035 26.0937 141.561 26.8324 140.771 27.3864C139.98 27.9356 138.99 28.2102 137.802 28.2102C136.604 28.2102 135.7 27.9356 135.089 27.3864C134.478 26.8324 134.251 26.0937 134.407 25.1705H136.85C136.803 25.4687 136.867 25.7434 137.042 25.9943C137.222 26.2405 137.575 26.3636 138.1 26.3636C138.612 26.3636 138.995 26.2429 139.251 26.0014C139.506 25.7599 139.663 25.483 139.719 25.1705ZM149.64 40.1705C148.948 40.1705 148.354 40.0568 147.857 39.8295C147.364 39.5975 147.005 39.2472 146.777 38.7784C146.555 38.3049 146.505 37.7083 146.628 36.9886C146.728 36.392 146.915 35.883 147.189 35.4616C147.464 35.0402 147.805 34.6946 148.212 34.4247C148.619 34.1548 149.076 33.9489 149.583 33.8068C150.094 33.66 150.634 33.5653 151.202 33.5227C151.818 33.4754 152.317 33.4162 152.701 33.3452C153.084 33.2741 153.371 33.1771 153.56 33.054C153.749 32.9309 153.863 32.7652 153.901 32.5568V32.5284C153.944 32.2443 153.868 32.0265 153.674 31.875C153.484 31.7235 153.219 31.6477 152.878 31.6477C152.509 31.6477 152.189 31.7282 151.919 31.8892C151.654 32.0502 151.472 32.3011 151.373 32.642H147.765C147.916 31.9792 148.226 31.3684 148.695 30.8097C149.168 30.2462 149.796 29.7964 150.577 29.4602C151.363 29.1193 152.301 28.9489 153.39 28.9489C154.166 28.9489 154.848 29.0412 155.435 29.2259C156.022 29.4058 156.507 29.6591 156.891 29.9858C157.279 30.3078 157.551 30.6866 157.708 31.1222C157.869 31.553 157.907 32.0218 157.821 32.5284L156.571 40H152.907L153.162 38.4659H153.077C152.793 38.8731 152.473 39.2022 152.118 39.4531C151.768 39.7041 151.384 39.8864 150.968 40C150.556 40.1136 150.113 40.1705 149.64 40.1705ZM151.344 37.6989C151.638 37.6989 151.926 37.6373 152.211 37.5142C152.495 37.3911 152.739 37.2135 152.942 36.9815C153.146 36.7495 153.276 36.4678 153.333 36.1364L153.475 35.2273C153.371 35.2699 153.255 35.3101 153.127 35.348C153.004 35.3812 152.873 35.4143 152.736 35.4474C152.604 35.4806 152.462 35.5114 152.31 35.5398C152.163 35.5682 152.012 35.5966 151.855 35.625C151.543 35.6723 151.28 35.7505 151.067 35.8594C150.854 35.9635 150.688 36.0938 150.57 36.25C150.452 36.4015 150.378 36.572 150.35 36.7614C150.307 37.0597 150.376 37.2917 150.556 37.4574C150.74 37.6184 151.003 37.6989 151.344 37.6989ZM164.78 25.4545L162.365 40H158.445L160.859 25.4545H164.78ZM164.363 40L166.181 29.0909H170.101L168.283 40H164.363ZM168.311 27.9545C167.781 27.9545 167.353 27.7794 167.026 27.429C166.699 27.0739 166.578 26.6525 166.664 26.1648C166.749 25.6676 167.009 25.2462 167.445 24.9006C167.881 24.5502 168.364 24.375 168.894 24.375C169.429 24.375 169.855 24.5502 170.172 24.9006C170.489 25.2462 170.608 25.6676 170.527 26.1648C170.452 26.6525 170.196 27.0739 169.76 27.429C169.329 27.7794 168.846 27.9545 168.311 27.9545ZM170.309 40L172.127 29.0909H175.849L175.508 31.1648H175.621C175.958 30.483 176.433 29.9432 177.049 29.5455C177.665 29.1477 178.353 28.9489 179.116 28.9489C179.878 28.9489 180.503 29.1525 180.991 29.5597C181.478 29.9621 181.725 30.4972 181.729 31.1648H181.843C182.137 30.4972 182.617 29.9621 183.285 29.5597C183.952 29.1525 184.693 28.9489 185.508 28.9489C186.545 28.9489 187.333 29.285 187.873 29.9574C188.417 30.6297 188.595 31.5246 188.406 32.642L187.184 40H183.263L184.343 33.6364C184.409 33.1581 184.343 32.7841 184.144 32.5142C183.945 32.2396 183.642 32.1023 183.235 32.1023C182.833 32.1023 182.492 32.2396 182.212 32.5142C181.938 32.7841 181.767 33.1581 181.701 33.6364L180.621 40H176.871L177.951 33.6364C178.017 33.1581 177.951 32.7841 177.752 32.5142C177.553 32.2396 177.25 32.1023 176.843 32.1023C176.578 32.1023 176.336 32.1638 176.119 32.2869C175.906 32.41 175.728 32.5876 175.586 32.8196C175.449 33.0469 175.356 33.3191 175.309 33.6364L174.229 40H170.309ZM194.288 40.1989C193.123 40.1989 192.157 39.9763 191.39 39.5312C190.623 39.0814 190.083 38.4375 189.771 37.5994C189.458 36.7566 189.402 35.7481 189.6 34.5739C189.79 33.447 190.181 32.4621 190.772 31.6193C191.369 30.7765 192.119 30.1207 193.024 29.652C193.933 29.1832 194.951 28.9489 196.078 28.9489C196.902 28.9489 197.624 29.0767 198.244 29.3324C198.869 29.5881 199.378 29.9598 199.771 30.4474C200.164 30.9351 200.429 31.5246 200.566 32.2159C200.708 32.9025 200.708 33.679 200.566 34.5455L200.424 35.4545H190.68L191.021 33.2955H197.157C197.205 32.983 197.174 32.7083 197.065 32.4716C196.961 32.2301 196.793 32.0431 196.561 31.9105C196.333 31.7732 196.059 31.7045 195.737 31.7045C195.415 31.7045 195.112 31.7732 194.828 31.9105C194.548 32.0478 194.309 32.2396 194.11 32.4858C193.916 32.732 193.786 33.0208 193.72 33.3523L193.294 35.625C193.237 35.9754 193.258 36.2879 193.358 36.5625C193.457 36.8371 193.63 37.0526 193.876 37.2088C194.122 37.3651 194.44 37.4432 194.828 37.4432C195.093 37.4432 195.344 37.4077 195.581 37.3366C195.822 37.2609 196.035 37.152 196.22 37.0099C196.409 36.8632 196.561 36.6856 196.674 36.4773H200.254C199.998 37.2348 199.593 37.893 199.039 38.4517C198.49 39.0057 197.813 39.4366 197.008 39.7443C196.208 40.0473 195.301 40.1989 194.288 40.1989ZM206.229 33.8636L205.206 40H201.286L203.104 29.0909H206.825L206.484 31.1648H206.598C206.944 30.4687 207.448 29.9266 208.111 29.5384C208.778 29.1454 209.515 28.9489 210.32 28.9489C211.091 28.9489 211.733 29.1241 212.244 29.4744C212.756 29.8248 213.118 30.3078 213.331 30.9233C213.544 31.5388 213.582 32.2443 213.445 33.0398L212.28 40H208.359L209.382 33.8636C209.472 33.3239 209.406 32.9001 209.183 32.5923C208.965 32.2846 208.606 32.1307 208.104 32.1307C207.786 32.1307 207.495 32.2017 207.23 32.3438C206.97 32.4811 206.752 32.6799 206.577 32.9403C206.406 33.196 206.29 33.5038 206.229 33.8636ZM222.511 29.0909L222.028 31.9318H214.84L215.323 29.0909H222.511ZM217.141 26.4773H221.062L219.4 36.4915C219.376 36.643 219.381 36.7708 219.414 36.875C219.447 36.9744 219.513 37.0502 219.613 37.1023C219.717 37.1496 219.854 37.1733 220.025 37.1733C220.138 37.1733 220.278 37.1591 220.444 37.1307C220.61 37.0975 220.735 37.0739 220.82 37.0597L220.934 39.8153C220.735 39.8722 220.468 39.9361 220.131 40.0071C219.8 40.0829 219.414 40.1326 218.974 40.1562C218.055 40.1989 217.307 40.1018 216.729 39.8651C216.156 39.6283 215.759 39.259 215.536 38.7571C215.318 38.2505 215.281 37.6184 215.423 36.8608L217.141 26.4773Z" fill="#3E57B2"/>
</svg>
