<svg width="68" height="60" viewBox="0 0 68 60" fill="none" xmlns="http://www.w3.org/2000/svg">
<rect width="68" height="60" rx="8" fill="#E6AE41"/>
<path d="M25.8979 12.375H19.8667C17.6576 12.375 15.8667 14.1659 15.8667 16.375V44.375C15.8667 46.5841 17.6576 48.375 19.8667 48.375H25.8979" stroke="white" stroke-width="3" stroke-linecap="round"/>
<path d="M42.1021 48.375H48.1333C50.3424 48.375 52.1333 46.5841 52.1333 44.375V16.375C52.1333 14.1659 50.3424 12.375 48.1333 12.375H42.1021" stroke="white" stroke-width="3" stroke-linecap="round"/>
<path d="M41.5667 30.375C41.5667 34.5067 38.1894 37.875 34 37.875C29.8106 37.875 26.4333 34.5067 26.4333 30.375C26.4333 26.2433 29.8106 22.875 34 22.875C38.1894 22.875 41.5667 26.2433 41.5667 30.375Z" stroke="white" stroke-width="3"/>
</svg>
