<svg width="146" height="64" viewBox="0 0 146 64" fill="none" xmlns="http://www.w3.org/2000/svg">
<rect width="146" height="64" rx="8" fill="#283D88"/>
<path d="M61 22H85" stroke="white" stroke-width="3" stroke-linecap="round"/>
<path d="M73 10L73 34" stroke="white" stroke-width="3" stroke-linecap="round"/>
<path d="M33.1808 47.5455H30.8114C30.8285 47.3437 30.8171 47.1619 30.7773 47C30.7376 46.8381 30.6694 46.6989 30.5728 46.5824C30.4762 46.4631 30.3498 46.3722 30.1935 46.3097C30.0373 46.2472 29.8512 46.2159 29.6353 46.2159C29.2205 46.2159 28.8498 46.3196 28.5231 46.527C28.1964 46.7315 27.9251 47.0256 27.7092 47.4091C27.4933 47.7898 27.3398 48.2443 27.2489 48.7727C27.1694 49.2841 27.1665 49.7088 27.2404 50.0469C27.3171 50.3849 27.4663 50.6378 27.6879 50.8054C27.9123 50.973 28.2035 51.0568 28.5614 51.0568C28.8001 51.0568 29.0188 51.0284 29.2177 50.9716C29.4194 50.9148 29.5984 50.8338 29.7546 50.7287C29.9137 50.6207 30.0487 50.4929 30.1594 50.3452C30.2731 50.1946 30.3597 50.0284 30.4194 49.8466H32.8058C32.7148 50.2159 32.5529 50.5937 32.32 50.9801C32.087 51.3636 31.7859 51.7173 31.4165 52.0412C31.0472 52.3622 30.6126 52.6222 30.1126 52.821C29.6126 53.0199 29.0501 53.1193 28.4251 53.1193C27.6069 53.1193 26.9009 52.9403 26.3072 52.5824C25.7163 52.2244 25.2873 51.7017 25.0202 51.0142C24.756 50.3267 24.7035 49.4886 24.8626 48.5C25.0217 47.5455 25.3356 46.7457 25.8043 46.1009C26.2731 45.456 26.8427 44.9702 27.5131 44.6435C28.1836 44.3168 28.8967 44.1534 29.6523 44.1534C30.2234 44.1534 30.7347 44.2287 31.1864 44.3793C31.641 44.5298 32.0231 44.75 32.3327 45.0398C32.6452 45.3267 32.8754 45.6804 33.0231 46.1009C33.1708 46.5213 33.2234 47.0028 33.1808 47.5455ZM33.3949 53L34.4858 46.4545H36.7699L36.5653 47.6989H36.6335C36.8295 47.2386 37.0753 46.902 37.3707 46.6889C37.6662 46.4759 37.9886 46.3693 38.3381 46.3693C38.4403 46.3693 38.5384 46.3778 38.6321 46.3949C38.7287 46.4091 38.8239 46.429 38.9176 46.4545L38.5767 48.4659C38.4659 48.4233 38.3281 48.3935 38.1634 48.3764C37.9986 48.3565 37.8523 48.3466 37.7244 48.3466C37.4972 48.3466 37.2841 48.3991 37.0852 48.5043C36.8892 48.6065 36.7216 48.7514 36.5824 48.9389C36.446 49.1236 36.3551 49.3409 36.3097 49.5909L35.7472 53H33.3949ZM41.3423 53.1193C40.6435 53.1193 40.0639 52.9858 39.6037 52.7188C39.1435 52.4489 38.8196 52.0625 38.6321 51.5597C38.4446 51.054 38.4105 50.4489 38.5298 49.7443C38.6435 49.0682 38.8778 48.4773 39.233 47.9716C39.5909 47.4659 40.0412 47.0724 40.5838 46.7912C41.1293 46.5099 41.7401 46.3693 42.4162 46.3693C42.9105 46.3693 43.3438 46.446 43.7159 46.5994C44.0909 46.7528 44.3963 46.9759 44.6321 47.2685C44.8679 47.5611 45.027 47.9148 45.1094 48.3295C45.1946 48.7415 45.1946 49.2074 45.1094 49.7273L45.0241 50.2727H39.1776L39.3821 48.9773H43.0639C43.0923 48.7898 43.0739 48.625 43.0085 48.483C42.946 48.3381 42.8452 48.2259 42.706 48.1463C42.5696 48.0639 42.4048 48.0227 42.2116 48.0227C42.0185 48.0227 41.8366 48.0639 41.6662 48.1463C41.4986 48.2287 41.3551 48.3437 41.2358 48.4915C41.1193 48.6392 41.0412 48.8125 41.0014 49.0114L40.7457 50.375C40.7116 50.5852 40.7244 50.7727 40.7841 50.9375C40.8438 51.1023 40.9474 51.2315 41.0952 51.3253C41.2429 51.419 41.4332 51.4659 41.6662 51.4659C41.8253 51.4659 41.9759 51.4446 42.1179 51.402C42.2628 51.3565 42.3906 51.2912 42.5014 51.206C42.6151 51.1179 42.706 51.0114 42.7741 50.8864H44.9219C44.7685 51.3409 44.5256 51.7358 44.1932 52.071C43.8636 52.4034 43.4574 52.6619 42.9744 52.8466C42.4943 53.0284 41.9503 53.1193 41.3423 53.1193ZM48.6431 53.1193C47.9442 53.1193 47.3647 52.9858 46.9045 52.7188C46.4442 52.4489 46.1204 52.0625 45.9329 51.5597C45.7454 51.054 45.7113 50.4489 45.8306 49.7443C45.9442 49.0682 46.1786 48.4773 46.5337 47.9716C46.8917 47.4659 47.342 47.0724 47.8846 46.7912C48.43 46.5099 49.0408 46.3693 49.717 46.3693C50.2113 46.3693 50.6445 46.446 51.0167 46.5994C51.3917 46.7528 51.6971 46.9759 51.9329 47.2685C52.1687 47.5611 52.3278 47.9148 52.4102 48.3295C52.4954 48.7415 52.4954 49.2074 52.4102 49.7273L52.3249 50.2727H46.4783L46.6829 48.9773H50.3647C50.3931 48.7898 50.3746 48.625 50.3093 48.483C50.2468 48.3381 50.146 48.2259 50.0067 48.1463C49.8704 48.0639 49.7056 48.0227 49.5124 48.0227C49.3192 48.0227 49.1374 48.0639 48.967 48.1463C48.7994 48.2287 48.6559 48.3437 48.5366 48.4915C48.4201 48.6392 48.342 48.8125 48.3022 49.0114L48.0465 50.375C48.0124 50.5852 48.0252 50.7727 48.0849 50.9375C48.1445 51.1023 48.2482 51.2315 48.396 51.3253C48.5437 51.419 48.734 51.4659 48.967 51.4659C49.1261 51.4659 49.2766 51.4446 49.4187 51.402C49.5636 51.3565 49.6914 51.2912 49.8022 51.206C49.9158 51.1179 50.0067 51.0114 50.0749 50.8864H52.2227C52.0692 51.3409 51.8263 51.7358 51.494 52.071C51.1644 52.4034 50.7582 52.6619 50.2752 52.8466C49.7951 53.0284 49.2511 53.1193 48.6431 53.1193ZM54.6314 53.1023C54.2166 53.1023 53.8601 53.0341 53.5618 52.8977C53.2663 52.7585 53.0504 52.5483 52.9141 52.267C52.7805 51.983 52.7507 51.625 52.8246 51.1932C52.8842 50.8352 52.9964 50.5298 53.1612 50.277C53.326 50.0241 53.5305 49.8168 53.7749 49.6548C54.0192 49.4929 54.2933 49.3693 54.5973 49.2841C54.9041 49.196 55.228 49.1392 55.5689 49.1136C55.9382 49.0852 56.2379 49.0497 56.468 49.0071C56.6982 48.9645 56.87 48.9062 56.9837 48.8324C57.0973 48.7585 57.1655 48.6591 57.1882 48.5341V48.517C57.2138 48.3466 57.1683 48.2159 57.0518 48.125C56.9382 48.0341 56.7791 47.9886 56.5746 47.9886C56.353 47.9886 56.1612 48.0369 55.9993 48.1335C55.8402 48.2301 55.7308 48.3807 55.6712 48.5852H53.5064C53.5973 48.1875 53.7834 47.821 54.0646 47.4858C54.3487 47.1477 54.7251 46.8778 55.1939 46.6761C55.6655 46.4716 56.228 46.3693 56.8814 46.3693C57.3473 46.3693 57.7564 46.4247 58.1087 46.5355C58.4609 46.6435 58.7521 46.7955 58.9822 46.9915C59.2152 47.1847 59.3786 47.4119 59.4723 47.6733C59.5689 47.9318 59.5916 48.2131 59.5405 48.517L58.7905 53H56.5916L56.745 52.0795H56.6939C56.5234 52.3239 56.3317 52.5213 56.1186 52.6719C55.9084 52.8224 55.6783 52.9318 55.4283 53C55.1811 53.0682 54.9155 53.1023 54.6314 53.1023ZM55.6541 51.6193C55.8303 51.6193 56.0036 51.5824 56.174 51.5085C56.3445 51.4347 56.4908 51.3281 56.6129 51.1889C56.7351 51.0497 56.8132 50.8807 56.8473 50.6818L56.9325 50.1364C56.87 50.1619 56.8004 50.1861 56.7237 50.2088C56.6499 50.2287 56.5717 50.2486 56.4893 50.2685C56.4098 50.2884 56.3246 50.3068 56.2337 50.3239C56.1456 50.3409 56.0547 50.358 55.9609 50.375C55.7734 50.4034 55.6158 50.4503 55.4879 50.5156C55.3601 50.5781 55.2607 50.6562 55.1896 50.75C55.1186 50.8409 55.0746 50.9432 55.0575 51.0568C55.032 51.2358 55.0732 51.375 55.1811 51.4744C55.2919 51.571 55.4496 51.6193 55.6541 51.6193ZM59.9996 53L60.2042 51.7045L63.6303 48.2784L63.6474 48.2443H60.886L61.1928 46.4545H66.7326L66.511 47.8864L63.3576 51.1761L63.3406 51.2102H66.0508L65.761 53H59.9996ZM68.858 53.1023C68.4432 53.1023 68.0866 53.0341 67.7884 52.8977C67.4929 52.7585 67.277 52.5483 67.1406 52.267C67.0071 51.983 66.9773 51.625 67.0511 51.1932C67.1108 50.8352 67.223 50.5298 67.3878 50.277C67.5526 50.0241 67.7571 49.8168 68.0014 49.6548C68.2457 49.4929 68.5199 49.3693 68.8239 49.2841C69.1307 49.196 69.4545 49.1392 69.7955 49.1136C70.1648 49.0852 70.4645 49.0497 70.6946 49.0071C70.9247 48.9645 71.0966 48.9062 71.2102 48.8324C71.3239 48.7585 71.392 48.6591 71.4148 48.5341V48.517C71.4403 48.3466 71.3949 48.2159 71.2784 48.125C71.1648 48.0341 71.0057 47.9886 70.8011 47.9886C70.5795 47.9886 70.3878 48.0369 70.2259 48.1335C70.0668 48.2301 69.9574 48.3807 69.8977 48.5852H67.733C67.8239 48.1875 68.0099 47.821 68.2912 47.4858C68.5753 47.1477 68.9517 46.8778 69.4205 46.6761C69.892 46.4716 70.4545 46.3693 71.108 46.3693C71.5739 46.3693 71.983 46.4247 72.3352 46.5355C72.6875 46.6435 72.9787 46.7955 73.2088 46.9915C73.4418 47.1847 73.6051 47.4119 73.6989 47.6733C73.7955 47.9318 73.8182 48.2131 73.767 48.517L73.017 53H70.8182L70.9716 52.0795H70.9205C70.75 52.3239 70.5582 52.5213 70.3452 52.6719C70.1349 52.8224 69.9048 52.9318 69.6548 53C69.4077 53.0682 69.142 53.1023 68.858 53.1023ZM69.8807 51.6193C70.0568 51.6193 70.2301 51.5824 70.4006 51.5085C70.571 51.4347 70.7173 51.3281 70.8395 51.1889C70.9616 51.0497 71.0398 50.8807 71.0739 50.6818L71.1591 50.1364C71.0966 50.1619 71.027 50.1861 70.9503 50.2088C70.8764 50.2287 70.7983 50.2486 70.7159 50.2685C70.6364 50.2884 70.5511 50.3068 70.4602 50.3239C70.3722 50.3409 70.2812 50.358 70.1875 50.375C70 50.4034 69.8423 50.4503 69.7145 50.5156C69.5866 50.5781 69.4872 50.6562 69.4162 50.75C69.3452 50.8409 69.3011 50.9432 69.2841 51.0568C69.2585 51.2358 69.2997 51.375 69.4077 51.4744C69.5185 51.571 69.6761 51.6193 69.8807 51.6193ZM72.3864 44.1023H73.8693C73.7756 44.6562 73.4915 45.0994 73.017 45.4318C72.5426 45.7614 71.9489 45.9261 71.2358 45.9261C70.517 45.9261 69.9744 45.7614 69.608 45.4318C69.2415 45.0994 69.1051 44.6562 69.1989 44.1023H70.6648C70.6364 44.2812 70.6747 44.446 70.7798 44.5966C70.8878 44.7443 71.0994 44.8182 71.4148 44.8182C71.7216 44.8182 71.9517 44.7457 72.1051 44.6009C72.2585 44.456 72.3523 44.2898 72.3864 44.1023ZM78.3384 53.1023C77.9237 53.1023 77.5671 53.0341 77.2688 52.8977C76.9734 52.7585 76.7575 52.5483 76.6211 52.267C76.4876 51.983 76.4577 51.625 76.5316 51.1932C76.5913 50.8352 76.7035 50.5298 76.8683 50.277C77.033 50.0241 77.2376 49.8168 77.4819 49.6548C77.7262 49.4929 78.0004 49.3693 78.3043 49.2841C78.6112 49.196 78.935 49.1392 79.2759 49.1136C79.6452 49.0852 79.945 49.0497 80.1751 49.0071C80.4052 48.9645 80.5771 48.9062 80.6907 48.8324C80.8043 48.7585 80.8725 48.6591 80.8952 48.5341V48.517C80.9208 48.3466 80.8754 48.2159 80.7589 48.125C80.6452 48.0341 80.4862 47.9886 80.2816 47.9886C80.06 47.9886 79.8683 48.0369 79.7063 48.1335C79.5472 48.2301 79.4379 48.3807 79.3782 48.5852H77.2134C77.3043 48.1875 77.4904 47.821 77.7717 47.4858C78.0558 47.1477 78.4322 46.8778 78.9009 46.6761C79.3725 46.4716 79.935 46.3693 80.5884 46.3693C81.0543 46.3693 81.4634 46.4247 81.8157 46.5355C82.168 46.6435 82.4592 46.7955 82.6893 46.9915C82.9222 47.1847 83.0856 47.4119 83.1793 47.6733C83.2759 47.9318 83.2987 48.2131 83.2475 48.517L82.4975 53H80.2987L80.4521 52.0795H80.4009C80.2305 52.3239 80.0387 52.5213 79.8256 52.6719C79.6154 52.8224 79.3853 52.9318 79.1353 53C78.8881 53.0682 78.6225 53.1023 78.3384 53.1023ZM79.3612 51.6193C79.5373 51.6193 79.7106 51.5824 79.881 51.5085C80.0515 51.4347 80.1978 51.3281 80.32 51.1889C80.4421 51.0497 80.5202 50.8807 80.5543 50.6818L80.6396 50.1364C80.5771 50.1619 80.5075 50.1861 80.4308 50.2088C80.3569 50.2287 80.2788 50.2486 80.1964 50.2685C80.1168 50.2884 80.0316 50.3068 79.9407 50.3239C79.8526 50.3409 79.7617 50.358 79.668 50.375C79.4805 50.4034 79.3228 50.4503 79.195 50.5156C79.0671 50.5781 78.9677 50.6562 78.8967 50.75C78.8256 50.8409 78.7816 50.9432 78.7646 51.0568C78.739 51.2358 78.7802 51.375 78.8881 51.4744C78.9989 51.571 79.1566 51.6193 79.3612 51.6193ZM87.4226 44.2727L85.9737 53H83.6214L85.0703 44.2727H87.4226ZM87.1722 53L88.2631 46.4545H90.6154L89.5245 53H87.1722ZM89.5415 45.7727C89.2234 45.7727 88.9663 45.6676 88.7702 45.4574C88.5742 45.2443 88.5018 44.9915 88.5529 44.6989C88.604 44.4006 88.7603 44.1477 89.0217 43.9403C89.283 43.7301 89.5728 43.625 89.891 43.625C90.212 43.625 90.4677 43.7301 90.658 43.9403C90.8484 44.1477 90.9194 44.4006 90.8711 44.6989C90.8256 44.9915 90.6722 45.2443 90.4109 45.4574C90.1523 45.6676 89.8626 45.7727 89.5415 45.7727ZM90.7401 53L91.831 46.4545H94.0639L93.8594 47.6989H93.9276C94.1293 47.2898 94.4148 46.9659 94.7841 46.7273C95.1534 46.4886 95.5668 46.3693 96.0241 46.3693C96.4815 46.3693 96.8565 46.4915 97.1491 46.7358C97.4418 46.9773 97.5895 47.2983 97.5923 47.6989H97.6605C97.8366 47.2983 98.125 46.9773 98.5256 46.7358C98.9261 46.4915 99.3707 46.3693 99.8594 46.3693C100.482 46.3693 100.955 46.571 101.278 46.9744C101.605 47.3778 101.712 47.9148 101.598 48.5852L100.865 53H98.5128L99.1605 49.1818C99.2003 48.8949 99.1605 48.6705 99.0412 48.5085C98.9219 48.3437 98.7401 48.2614 98.4957 48.2614C98.2543 48.2614 98.0497 48.3437 97.8821 48.5085C97.7173 48.6705 97.6151 48.8949 97.5753 49.1818L96.9276 53H94.6776L95.3253 49.1818C95.3651 48.8949 95.3253 48.6705 95.206 48.5085C95.0866 48.3437 94.9048 48.2614 94.6605 48.2614C94.5014 48.2614 94.3565 48.2983 94.2259 48.3722C94.098 48.446 93.9915 48.5526 93.9062 48.6918C93.8239 48.8281 93.7685 48.9915 93.7401 49.1818L93.0923 53H90.7401ZM105.127 53.1193C104.429 53.1193 103.849 52.9858 103.389 52.7188C102.929 52.4489 102.605 52.0625 102.417 51.5597C102.23 51.054 102.196 50.4489 102.315 49.7443C102.429 49.0682 102.663 48.4773 103.018 47.9716C103.376 47.4659 103.826 47.0724 104.369 46.7912C104.914 46.5099 105.525 46.3693 106.201 46.3693C106.696 46.3693 107.129 46.446 107.501 46.5994C107.876 46.7528 108.181 46.9759 108.417 47.2685C108.653 47.5611 108.812 47.9148 108.895 48.3295C108.98 48.7415 108.98 49.2074 108.895 49.7273L108.809 50.2727H102.963L103.167 48.9773H106.849C106.877 48.7898 106.859 48.625 106.794 48.483C106.731 48.3381 106.63 48.2259 106.491 48.1463C106.355 48.0639 106.19 48.0227 105.997 48.0227C105.804 48.0227 105.622 48.0639 105.451 48.1463C105.284 48.2287 105.14 48.3437 105.021 48.4915C104.904 48.6392 104.826 48.8125 104.787 49.0114L104.531 50.375C104.497 50.5852 104.51 50.7727 104.569 50.9375C104.629 51.1023 104.733 51.2315 104.88 51.3253C105.028 51.419 105.218 51.4659 105.451 51.4659C105.61 51.4659 105.761 51.4446 105.903 51.402C106.048 51.3565 106.176 51.2912 106.287 51.206C106.4 51.1179 106.491 51.0114 106.559 50.8864H108.707C108.554 51.3409 108.311 51.7358 107.978 52.071C107.649 52.4034 107.243 52.6619 106.76 52.8466C106.279 53.0284 105.735 53.1193 105.127 53.1193ZM112.292 49.3182L111.678 53H109.326L110.417 46.4545H112.65L112.445 47.6989H112.513C112.721 47.2812 113.023 46.956 113.421 46.723C113.822 46.4872 114.263 46.3693 114.746 46.3693C115.21 46.3693 115.594 46.4744 115.901 46.6847C116.208 46.8949 116.425 47.1847 116.553 47.554C116.681 47.9233 116.704 48.3466 116.621 48.8239L115.923 53H113.57L114.184 49.3182C114.238 48.9943 114.198 48.7401 114.065 48.5554C113.934 48.3707 113.718 48.2784 113.417 48.2784C113.227 48.2784 113.052 48.321 112.893 48.4062C112.737 48.4886 112.606 48.608 112.501 48.7642C112.398 48.9176 112.329 49.1023 112.292 49.3182ZM122.061 46.4545L121.771 48.1591H117.459L117.749 46.4545H122.061ZM118.839 44.8864H121.192L120.195 50.8949C120.18 50.9858 120.183 51.0625 120.203 51.125C120.223 51.1847 120.263 51.2301 120.322 51.2614C120.385 51.2898 120.467 51.304 120.57 51.304C120.638 51.304 120.722 51.2955 120.821 51.2784C120.92 51.2585 120.996 51.2443 121.047 51.2358L121.115 52.8892C120.996 52.9233 120.835 52.9616 120.634 53.0043C120.435 53.0497 120.203 53.0795 119.939 53.0938C119.388 53.1193 118.939 53.0611 118.592 52.919C118.249 52.777 118.01 52.5554 117.876 52.2543C117.746 51.9503 117.723 51.571 117.808 51.1165L118.839 44.8864Z" fill="white"/>
</svg>
