<svg width="146" height="64" viewBox="0 0 146 64" fill="none" xmlns="http://www.w3.org/2000/svg">
<rect width="146" height="64" rx="8" fill="#283D88"/>
<path d="M22.5226 47.5455H20.1532C20.1703 47.3437 20.1589 47.1619 20.1191 47C20.0794 46.8381 20.0112 46.6989 19.9146 46.5824C19.818 46.4631 19.6916 46.3722 19.5353 46.3097C19.3791 46.2472 19.193 46.2159 18.9771 46.2159C18.5623 46.2159 18.1916 46.3196 17.8649 46.527C17.5382 46.7315 17.2669 47.0256 17.051 47.4091C16.835 47.7898 16.6816 48.2443 16.5907 48.7727C16.5112 49.2841 16.5083 49.7088 16.5822 50.0469C16.6589 50.3849 16.8081 50.6378 17.0297 50.8054C17.2541 50.973 17.5453 51.0568 17.9032 51.0568C18.1419 51.0568 18.3606 51.0284 18.5595 50.9716C18.7612 50.9148 18.9402 50.8338 19.0964 50.7287C19.2555 50.6207 19.3904 50.4929 19.5012 50.3452C19.6149 50.1946 19.7015 50.0284 19.7612 49.8466H22.1476C22.0566 50.2159 21.8947 50.5937 21.6618 50.9801C21.4288 51.3636 21.1277 51.7173 20.7583 52.0412C20.389 52.3622 19.9544 52.6222 19.4544 52.821C18.9544 53.0199 18.3919 53.1193 17.7669 53.1193C16.9487 53.1193 16.2427 52.9403 15.649 52.5824C15.0581 52.2244 14.6291 51.7017 14.362 51.0142C14.0978 50.3267 14.0453 49.4886 14.2044 48.5C14.3635 47.5455 14.6774 46.7457 15.1461 46.1009C15.6149 45.456 16.1845 44.9702 16.8549 44.6435C17.5254 44.3168 18.2385 44.1534 18.9941 44.1534C19.5652 44.1534 20.0765 44.2287 20.5282 44.3793C20.9828 44.5298 21.3649 44.75 21.6745 45.0398C21.987 45.3267 22.2172 45.6804 22.3649 46.1009C22.5126 46.5213 22.5652 47.0028 22.5226 47.5455ZM24.5435 53.1023C24.1287 53.1023 23.7722 53.0341 23.4739 52.8977C23.1784 52.7585 22.9625 52.5483 22.8262 52.267C22.6926 51.983 22.6628 51.625 22.7367 51.1932C22.7963 50.8352 22.9086 50.5298 23.0733 50.277C23.2381 50.0241 23.4426 49.8168 23.687 49.6548C23.9313 49.4929 24.2054 49.3693 24.5094 49.2841C24.8162 49.196 25.1401 49.1392 25.481 49.1136C25.8503 49.0852 26.15 49.0497 26.3801 49.0071C26.6103 48.9645 26.7821 48.9062 26.8958 48.8324C27.0094 48.7585 27.0776 48.6591 27.1003 48.5341V48.517C27.1259 48.3466 27.0804 48.2159 26.964 48.125C26.8503 48.0341 26.6912 47.9886 26.4867 47.9886C26.2651 47.9886 26.0733 48.0369 25.9114 48.1335C25.7523 48.2301 25.6429 48.3807 25.5833 48.5852H23.4185C23.5094 48.1875 23.6955 47.821 23.9767 47.4858C24.2608 47.1477 24.6373 46.8778 25.106 46.6761C25.5776 46.4716 26.1401 46.3693 26.7935 46.3693C27.2594 46.3693 27.6685 46.4247 28.0208 46.5355C28.373 46.6435 28.6642 46.7955 28.8944 46.9915C29.1273 47.1847 29.2907 47.4119 29.3844 47.6733C29.481 47.9318 29.5037 48.2131 29.4526 48.517L28.7026 53H26.5037L26.6571 52.0795H26.606C26.4355 52.3239 26.2438 52.5213 26.0307 52.6719C25.8205 52.8224 25.5904 52.9318 25.3404 53C25.0932 53.0682 24.8276 53.1023 24.5435 53.1023ZM25.5662 51.6193C25.7424 51.6193 25.9157 51.5824 26.0861 51.5085C26.2566 51.4347 26.4029 51.3281 26.525 51.1889C26.6472 51.0497 26.7253 50.8807 26.7594 50.6818L26.8446 50.1364C26.7821 50.1619 26.7125 50.1861 26.6358 50.2088C26.562 50.2287 26.4838 50.2486 26.4015 50.2685C26.3219 50.2884 26.2367 50.3068 26.1458 50.3239C26.0577 50.3409 25.9668 50.358 25.873 50.375C25.6855 50.4034 25.5279 50.4503 25.4 50.5156C25.2722 50.5781 25.1728 50.6562 25.1017 50.75C25.0307 50.8409 24.9867 50.9432 24.9696 51.0568C24.9441 51.2358 24.9853 51.375 25.0932 51.4744C25.204 51.571 25.3617 51.6193 25.5662 51.6193ZM34.5481 50.1364L35.1618 46.4545H37.514L36.4231 53H34.1902L34.3947 51.7557H34.3265C34.1248 52.1733 33.8237 52.5 33.4231 52.7358C33.0254 52.9687 32.5822 53.0852 32.0936 53.0852C31.6362 53.0852 31.2541 52.9801 30.9473 52.7699C30.6404 52.5597 30.4231 52.2699 30.2953 51.9006C30.1674 51.5312 30.1419 51.108 30.2186 50.6307L30.9174 46.4545H33.2697L32.6561 50.1364C32.6078 50.4602 32.649 50.7145 32.7797 50.8991C32.9132 51.0838 33.1277 51.1761 33.4231 51.1761C33.6191 51.1761 33.7953 51.1349 33.9515 51.0526C34.1106 50.9673 34.2413 50.848 34.3436 50.6946C34.4487 50.5384 34.5169 50.3523 34.5481 50.1364ZM42.6138 46.4545L42.324 48.1591H38.0115L38.3013 46.4545H42.6138ZM39.3922 44.8864H41.7445L40.7473 50.8949C40.7331 50.9858 40.736 51.0625 40.7559 51.125C40.7757 51.1847 40.8155 51.2301 40.8752 51.2614C40.9377 51.2898 41.0201 51.304 41.1223 51.304C41.1905 51.304 41.2743 51.2955 41.3738 51.2784C41.4732 51.2585 41.5485 51.2443 41.5996 51.2358L41.6678 52.8892C41.5485 52.9233 41.388 52.9616 41.1863 53.0043C40.9874 53.0497 40.7559 53.0795 40.4917 53.0938C39.9405 53.1193 39.4917 53.0611 39.1451 52.919C38.8013 52.777 38.5627 52.5554 38.4292 52.2543C38.2985 51.9503 38.2757 51.571 38.361 51.1165L39.3922 44.8864ZM44.2896 53.1023C43.8748 53.1023 43.5183 53.0341 43.22 52.8977C42.9245 52.7585 42.7086 52.5483 42.5723 52.267C42.4387 51.983 42.4089 51.625 42.4828 51.1932C42.5424 50.8352 42.6547 50.5298 42.8194 50.277C42.9842 50.0241 43.1887 49.8168 43.4331 49.6548C43.6774 49.4929 43.9515 49.3693 44.2555 49.2841C44.5623 49.196 44.8862 49.1392 45.2271 49.1136C45.5964 49.0852 45.8961 49.0497 46.1262 49.0071C46.3564 48.9645 46.5282 48.9062 46.6419 48.8324C46.7555 48.7585 46.8237 48.6591 46.8464 48.5341V48.517C46.872 48.3466 46.8265 48.2159 46.71 48.125C46.5964 48.0341 46.4373 47.9886 46.2328 47.9886C46.0112 47.9886 45.8194 48.0369 45.6575 48.1335C45.4984 48.2301 45.389 48.3807 45.3294 48.5852H43.1646C43.2555 48.1875 43.4416 47.821 43.7228 47.4858C44.0069 47.1477 44.3833 46.8778 44.8521 46.6761C45.3237 46.4716 45.8862 46.3693 46.5396 46.3693C47.0055 46.3693 47.4146 46.4247 47.7669 46.5355C48.1191 46.6435 48.4103 46.7955 48.6404 46.9915C48.8734 47.1847 49.0368 47.4119 49.1305 47.6733C49.2271 47.9318 49.2498 48.2131 49.1987 48.517L48.4487 53H46.2498L46.4032 52.0795H46.3521C46.1816 52.3239 45.9899 52.5213 45.7768 52.6719C45.5666 52.8224 45.3365 52.9318 45.0865 53C44.8393 53.0682 44.5737 53.1023 44.2896 53.1023ZM45.3123 51.6193C45.4885 51.6193 45.6618 51.5824 45.8322 51.5085C46.0027 51.4347 46.149 51.3281 46.2711 51.1889C46.3933 51.0497 46.4714 50.8807 46.5055 50.6818L46.5907 50.1364C46.5282 50.1619 46.4586 50.1861 46.3819 50.2088C46.3081 50.2287 46.2299 50.2486 46.1475 50.2685C46.068 50.2884 45.9828 50.3068 45.8919 50.3239C45.8038 50.3409 45.7129 50.358 45.6191 50.375C45.4316 50.4034 45.274 50.4503 45.1461 50.5156C45.0183 50.5781 44.9189 50.6562 44.8478 50.75C44.7768 50.8409 44.7328 50.9432 44.7157 51.0568C44.6902 51.2358 44.7314 51.375 44.8393 51.4744C44.9501 51.571 45.1078 51.6193 45.3123 51.6193ZM47.818 44.1023H49.301C49.2072 44.6562 48.9231 45.0994 48.4487 45.4318C47.9743 45.7614 47.3805 45.9261 46.6674 45.9261C45.9487 45.9261 45.4061 45.7614 45.0396 45.4318C44.6731 45.0994 44.5368 44.6562 44.6305 44.1023H46.0964C46.068 44.2812 46.1064 44.446 46.2115 44.5966C46.3194 44.7443 46.5311 44.8182 46.8464 44.8182C47.1532 44.8182 47.3833 44.7457 47.5368 44.6009C47.6902 44.456 47.7839 44.2898 47.818 44.1023ZM55.0996 53.1193C54.3894 53.1193 53.8042 52.9787 53.3439 52.6974C52.8837 52.4134 52.5613 52.0185 52.3766 51.5128C52.1919 51.0043 52.1564 50.4148 52.2701 49.7443C52.378 49.0739 52.6081 48.4858 52.9604 47.9801C53.3155 47.4716 53.7701 47.0767 54.324 46.7955C54.8809 46.5114 55.5144 46.3693 56.2246 46.3693C56.8667 46.3693 57.4022 46.4858 57.8311 46.7188C58.263 46.9489 58.5712 47.2756 58.7559 47.6989C58.9434 48.1193 58.9917 48.6136 58.9007 49.1818H56.7189C56.7445 48.8409 56.6891 48.5795 56.5527 48.3977C56.4192 48.2159 56.2246 48.125 55.9689 48.125C55.7587 48.125 55.5655 48.1847 55.3894 48.304C55.2161 48.4205 55.0669 48.598 54.9419 48.8366C54.8198 49.0724 54.7303 49.3693 54.6735 49.7273C54.6167 50.0852 54.6096 50.3835 54.6522 50.6222C54.6976 50.858 54.7857 51.0355 54.9164 51.1548C55.0499 51.2713 55.2189 51.3295 55.4235 51.3295C55.5996 51.3295 55.7615 51.2898 55.9093 51.2102C56.0598 51.1278 56.1891 51.0085 56.2971 50.8523C56.4078 50.6932 56.4917 50.5 56.5485 50.2727H58.7303C58.6223 50.8523 58.405 51.3551 58.0783 51.7812C57.7516 52.2074 57.3354 52.5369 56.8297 52.7699C56.324 53.0028 55.7473 53.1193 55.0996 53.1193ZM62.377 53.1193C61.6667 53.1193 61.0815 52.9787 60.6213 52.6974C60.1639 52.4134 59.8429 52.0185 59.6582 51.5128C59.4735 51.0043 59.4366 50.4148 59.5474 49.7443C59.6582 49.0739 59.8897 48.4858 60.242 47.9801C60.5943 47.4716 61.0474 47.0767 61.6014 46.7955C62.1554 46.5114 62.7889 46.3693 63.502 46.3693C64.2093 46.3693 64.7917 46.5114 65.2491 46.7955C65.7093 47.0767 66.0318 47.4716 66.2164 47.9801C66.4039 48.4858 66.4423 49.0739 66.3315 49.7443C66.2207 50.4148 65.9877 51.0043 65.6326 51.5128C65.2775 52.0185 64.823 52.4134 64.269 52.6974C63.7179 52.9787 63.0872 53.1193 62.377 53.1193ZM62.6667 51.3807C62.8713 51.3807 63.0574 51.3139 63.225 51.1804C63.3954 51.0469 63.5403 50.8565 63.6596 50.6094C63.7818 50.3622 63.8713 50.0682 63.9281 49.7273C63.9849 49.3835 63.9934 49.0895 63.9537 48.8452C63.9139 48.598 63.8315 48.4077 63.7065 48.2741C63.5815 48.1406 63.4167 48.0739 63.2122 48.0739C63.0076 48.0739 62.8201 48.1406 62.6497 48.2741C62.4792 48.4077 62.3343 48.598 62.215 48.8452C62.0957 49.0895 62.0076 49.3835 61.9508 49.7273C61.894 50.0682 61.8841 50.3622 61.921 50.6094C61.9608 50.8565 62.0431 51.0469 62.1681 51.1804C62.296 51.3139 62.4622 51.3807 62.6667 51.3807ZM69.1014 53.0852C68.6355 53.0852 68.2264 52.9631 67.8741 52.7188C67.5247 52.4744 67.2733 52.1037 67.1199 51.6065C66.9693 51.1094 66.9565 50.483 67.0815 49.7273C67.2122 48.9375 67.4409 48.2955 67.7676 47.8011C68.0971 47.3068 68.475 46.9446 68.9011 46.7145C69.3301 46.4844 69.7605 46.3693 70.1923 46.3693C70.5162 46.3693 70.7903 46.4261 71.0147 46.5398C71.242 46.6506 71.4224 46.7997 71.5559 46.9872C71.6895 47.1719 71.7804 47.375 71.8287 47.5966H71.8627L72.4167 44.2727H74.769L73.3201 53H70.9849L71.1639 51.9261H71.1127C70.9849 52.1477 70.8216 52.3466 70.6227 52.5227C70.4267 52.696 70.2008 52.8338 69.9451 52.9361C69.6895 53.0355 69.4082 53.0852 69.1014 53.0852ZM70.269 51.2784C70.4849 51.2784 70.6809 51.2159 70.8571 51.0909C71.0332 50.9631 71.1824 50.7841 71.3045 50.554C71.4267 50.321 71.5133 50.0455 71.5645 49.7273C71.6184 49.4034 71.6227 49.1264 71.5772 48.8963C71.5318 48.6634 71.4409 48.4858 71.3045 48.3636C71.171 48.2386 70.9963 48.1761 70.7804 48.1761C70.5645 48.1761 70.3699 48.2386 70.1966 48.3636C70.0233 48.4858 69.877 48.6634 69.7576 48.8963C69.6412 49.1264 69.5559 49.4034 69.502 49.7273C69.448 50.0511 69.4409 50.3295 69.4806 50.5625C69.5233 50.7926 69.6113 50.9702 69.7449 51.0952C69.8784 51.2173 70.0531 51.2784 70.269 51.2784ZM79.1966 50.1364L79.8102 46.4545H82.1625L81.0716 53H78.8386L79.0431 51.7557H78.975C78.7733 52.1733 78.4721 52.5 78.0716 52.7358C77.6738 52.9687 77.2306 53.0852 76.742 53.0852C76.2846 53.0852 75.9025 52.9801 75.5957 52.7699C75.2889 52.5597 75.0716 52.2699 74.9437 51.9006C74.8159 51.5312 74.7903 51.108 74.867 50.6307L75.5659 46.4545H77.9181L77.3045 50.1364C77.2562 50.4602 77.2974 50.7145 77.4281 50.8991C77.5616 51.0838 77.7761 51.1761 78.0716 51.1761C78.2676 51.1761 78.4437 51.1349 78.6 51.0526C78.7591 50.9673 78.8897 50.848 78.992 50.6946C79.0971 50.5384 79.1653 50.3523 79.1966 50.1364ZM86.0691 44.2727L84.6202 53H82.2679L83.7168 44.2727H86.0691ZM90.5701 53.0852C90.1042 53.0852 89.6951 52.9631 89.3429 52.7188C88.9934 52.4744 88.742 52.1037 88.5886 51.6065C88.438 51.1094 88.4252 50.483 88.5502 49.7273C88.6809 48.9375 88.9096 48.2955 89.2363 47.8011C89.5659 47.3068 89.9437 46.9446 90.3699 46.7145C90.7988 46.4844 91.2292 46.3693 91.661 46.3693C91.9849 46.3693 92.2591 46.4261 92.4835 46.5398C92.7108 46.6506 92.8912 46.7997 93.0247 46.9872C93.1582 47.1719 93.2491 47.375 93.2974 47.5966H93.3315L93.8855 44.2727H96.2377L94.7889 53H92.4537L92.6326 51.9261H92.5815C92.4537 52.1477 92.2903 52.3466 92.0914 52.5227C91.8954 52.696 91.6696 52.8338 91.4139 52.9361C91.1582 53.0355 90.877 53.0852 90.5701 53.0852ZM91.7377 51.2784C91.9537 51.2784 92.1497 51.2159 92.3258 51.0909C92.502 50.9631 92.6511 50.7841 92.7733 50.554C92.8954 50.321 92.9821 50.0455 93.0332 49.7273C93.0872 49.4034 93.0914 49.1264 93.046 48.8963C93.0005 48.6634 92.9096 48.4858 92.7733 48.3636C92.6397 48.2386 92.465 48.1761 92.2491 48.1761C92.0332 48.1761 91.8386 48.2386 91.6653 48.3636C91.492 48.4858 91.3457 48.6634 91.2264 48.8963C91.1099 49.1264 91.0247 49.4034 90.9707 49.7273C90.9167 50.0511 90.9096 50.3295 90.9494 50.5625C90.992 50.7926 91.0801 50.9702 91.2136 51.0952C91.3471 51.2173 91.5218 51.2784 91.7377 51.2784ZM99.063 53.1193C98.3642 53.1193 97.7846 52.9858 97.3244 52.7188C96.8642 52.4489 96.5403 52.0625 96.3528 51.5597C96.1653 51.054 96.1312 50.4489 96.2505 49.7443C96.3642 49.0682 96.5985 48.4773 96.9537 47.9716C97.3116 47.4659 97.7619 47.0724 98.3045 46.7912C98.85 46.5099 99.4608 46.3693 100.137 46.3693C100.631 46.3693 101.064 46.446 101.437 46.5994C101.812 46.7528 102.117 46.9759 102.353 47.2685C102.589 47.5611 102.748 47.9148 102.83 48.3295C102.915 48.7415 102.915 49.2074 102.83 49.7273L102.745 50.2727H96.8983L97.1028 48.9773H100.785C100.813 48.7898 100.795 48.625 100.729 48.483C100.667 48.3381 100.566 48.2259 100.427 48.1463C100.29 48.0639 100.126 48.0227 99.9324 48.0227C99.7392 48.0227 99.5574 48.0639 99.3869 48.1463C99.2193 48.2287 99.0758 48.3437 98.9565 48.4915C98.84 48.6392 98.7619 48.8125 98.7221 49.0114L98.4664 50.375C98.4324 50.5852 98.4451 50.7727 98.5048 50.9375C98.5645 51.1023 98.6681 51.2315 98.8159 51.3253C98.9636 51.419 99.1539 51.4659 99.3869 51.4659C99.546 51.4659 99.6966 51.4446 99.8386 51.402C99.9835 51.3565 100.111 51.2912 100.222 51.206C100.336 51.1179 100.427 51.0114 100.495 50.8864H102.643C102.489 51.3409 102.246 51.7358 101.914 52.071C101.584 52.4034 101.178 52.6619 100.695 52.8466C100.215 53.0284 99.671 53.1193 99.063 53.1193ZM105.601 53L107.05 44.2727H109.402L108.857 47.5966H108.891C109.01 47.375 109.168 47.1719 109.364 46.9872C109.56 46.7997 109.79 46.6506 110.054 46.5398C110.318 46.4261 110.612 46.3693 110.936 46.3693C111.368 46.3693 111.759 46.4844 112.108 46.7145C112.46 46.9446 112.718 47.3068 112.879 47.8011C113.044 48.2955 113.061 48.9375 112.931 49.7273C112.806 50.483 112.584 51.1094 112.266 51.6065C111.948 52.1037 111.573 52.4744 111.141 52.7188C110.709 52.9631 110.26 53.0852 109.794 53.0852C109.487 53.0852 109.222 53.0355 108.997 52.9361C108.776 52.8338 108.595 52.696 108.456 52.5227C108.32 52.3466 108.226 52.1477 108.175 51.9261H108.107L107.936 53H105.601ZM108.448 49.7273C108.396 50.0455 108.394 50.321 108.439 50.554C108.485 50.7841 108.574 50.9631 108.708 51.0909C108.841 51.2159 109.016 51.2784 109.232 51.2784C109.448 51.2784 109.642 51.2173 109.816 51.0952C109.989 50.9702 110.135 50.7926 110.254 50.5625C110.374 50.3295 110.459 50.0511 110.51 49.7273C110.561 49.4034 110.566 49.1264 110.523 48.8963C110.48 48.6634 110.394 48.4858 110.263 48.3636C110.132 48.2386 109.959 48.1761 109.743 48.1761C109.527 48.1761 109.331 48.2386 109.155 48.3636C108.979 48.4858 108.83 48.6634 108.708 48.8963C108.585 49.1264 108.499 49.4034 108.448 49.7273ZM115.176 53.1023C114.762 53.1023 114.405 53.0341 114.107 52.8977C113.811 52.7585 113.595 52.5483 113.459 52.267C113.325 51.983 113.296 51.625 113.369 51.1932C113.429 50.8352 113.541 50.5298 113.706 50.277C113.871 50.0241 114.075 49.8168 114.32 49.6548C114.564 49.4929 114.838 49.3693 115.142 49.2841C115.449 49.196 115.773 49.1392 116.114 49.1136C116.483 49.0852 116.783 49.0497 117.013 49.0071C117.243 48.9645 117.415 48.9062 117.529 48.8324C117.642 48.7585 117.71 48.6591 117.733 48.5341V48.517C117.759 48.3466 117.713 48.2159 117.597 48.125C117.483 48.0341 117.324 47.9886 117.119 47.9886C116.898 47.9886 116.706 48.0369 116.544 48.1335C116.385 48.2301 116.276 48.3807 116.216 48.5852H114.051C114.142 48.1875 114.328 47.821 114.61 47.4858C114.894 47.1477 115.27 46.8778 115.739 46.6761C116.21 46.4716 116.773 46.3693 117.426 46.3693C117.892 46.3693 118.301 46.4247 118.654 46.5355C119.006 46.6435 119.297 46.7955 119.527 46.9915C119.76 47.1847 119.923 47.4119 120.017 47.6733C120.114 47.9318 120.137 48.2131 120.085 48.517L119.335 53H117.137L117.29 52.0795H117.239C117.068 52.3239 116.877 52.5213 116.664 52.6719C116.453 52.8224 116.223 52.9318 115.973 53C115.726 53.0682 115.46 53.1023 115.176 53.1023ZM116.199 51.6193C116.375 51.6193 116.548 51.5824 116.719 51.5085C116.889 51.4347 117.036 51.3281 117.158 51.1889C117.28 51.0497 117.358 50.8807 117.392 50.6818L117.477 50.1364C117.415 50.1619 117.345 50.1861 117.269 50.2088C117.195 50.2287 117.117 50.2486 117.034 50.2685C116.955 50.2884 116.869 50.3068 116.779 50.3239C116.691 50.3409 116.6 50.358 116.506 50.375C116.318 50.4034 116.161 50.4503 116.033 50.5156C115.905 50.5781 115.806 50.6562 115.735 50.75C115.664 50.8409 115.619 50.9432 115.602 51.0568C115.577 51.2358 115.618 51.375 115.726 51.4744C115.837 51.571 115.994 51.6193 116.199 51.6193ZM120.459 53L121.55 46.4545H123.834L123.63 47.6989H123.698C123.894 47.2386 124.14 46.902 124.435 46.6889C124.731 46.4759 125.053 46.3693 125.403 46.3693C125.505 46.3693 125.603 46.3778 125.697 46.3949C125.793 46.4091 125.888 46.429 125.982 46.4545L125.641 48.4659C125.53 48.4233 125.393 48.3935 125.228 48.3764C125.063 48.3565 124.917 48.3466 124.789 48.3466C124.562 48.3466 124.349 48.3991 124.15 48.5043C123.954 48.6065 123.786 48.7514 123.647 48.9389C123.51 49.1236 123.42 49.3409 123.374 49.5909L122.812 53H120.459ZM128.407 53.1193C127.708 53.1193 127.128 52.9858 126.668 52.7188C126.208 52.4489 125.884 52.0625 125.697 51.5597C125.509 51.054 125.475 50.4489 125.594 49.7443C125.708 49.0682 125.942 48.4773 126.297 47.9716C126.655 47.4659 127.106 47.0724 127.648 46.7912C128.194 46.5099 128.805 46.3693 129.481 46.3693C129.975 46.3693 130.408 46.446 130.78 46.5994C131.155 46.7528 131.461 46.9759 131.697 47.2685C131.932 47.5611 132.091 47.9148 132.174 48.3295C132.259 48.7415 132.259 49.2074 132.174 49.7273L132.089 50.2727H126.242L126.447 48.9773H130.128C130.157 48.7898 130.138 48.625 130.073 48.483C130.01 48.3381 129.91 48.2259 129.77 48.1463C129.634 48.0639 129.469 48.0227 129.276 48.0227C129.083 48.0227 128.901 48.0639 128.731 48.1463C128.563 48.2287 128.42 48.3437 128.3 48.4915C128.184 48.6392 128.106 48.8125 128.066 49.0114L127.81 50.375C127.776 50.5852 127.789 50.7727 127.849 50.9375C127.908 51.1023 128.012 51.2315 128.16 51.3253C128.307 51.419 128.498 51.4659 128.731 51.4659C128.89 51.4659 129.04 51.4446 129.182 51.402C129.327 51.3565 129.455 51.2912 129.566 51.206C129.68 51.1179 129.77 51.0114 129.839 50.8864H131.986C131.833 51.3409 131.59 51.7358 131.258 52.071C130.928 52.4034 130.522 52.6619 130.039 52.8466C129.559 53.0284 129.015 53.1193 128.407 53.1193Z" fill="white"/>
<path d="M65.6383 10H63C60.7909 10 59 11.7909 59 14V30C59 32.2091 60.7909 34 63 34H65.6383" stroke="white" stroke-width="3" stroke-linecap="round"/>
<path d="M76.3617 34H79C81.2091 34 83 32.2091 83 30V14C83 11.7909 81.2091 10 79 10H76.3617" stroke="white" stroke-width="3" stroke-linecap="round"/>
<path d="M63.0851 14.8V29.2" stroke="white" stroke-linecap="round"/>
<path d="M65.1277 14.8V29.2" stroke="white" stroke-linecap="round"/>
<path d="M68.1915 14.8V29.2" stroke="white" stroke-linecap="round"/>
<path d="M76.3617 14.8V29.2" stroke="white" stroke-linecap="round"/>
<path d="M74.3191 14.8V29.2" stroke="white" stroke-linecap="round"/>
<path d="M78.4043 14.8V29.2" stroke="white" stroke-linecap="round"/>
<path d="M70.234 14.8V29.2" stroke="white" stroke-linecap="round"/>
</svg>
