<svg width="28" height="28" viewBox="0 0 28 28" fill="none" xmlns="http://www.w3.org/2000/svg">
<path d="M8.6383 2H6C3.79086 2 2 3.79086 2 6V22C2 24.2091 3.79086 26 6 26H8.6383" stroke="white" stroke-width="3" stroke-linecap="round"/>
<path d="M19.3617 26H22C24.2091 26 26 24.2091 26 22V6C26 3.79086 24.2091 2 22 2H19.3617" stroke="white" stroke-width="3" stroke-linecap="round"/>
<path d="M6.08508 6.8L6.08508 21.2" stroke="white" stroke-linecap="round"/>
<path d="M8.12769 6.8L8.12769 21.2" stroke="white" stroke-linecap="round"/>
<path d="M11.1915 6.8L11.1915 21.2" stroke="white" stroke-linecap="round"/>
<path d="M19.3617 6.8V21.2" stroke="white" stroke-linecap="round"/>
<path d="M17.3191 6.8V21.2" stroke="white" stroke-linecap="round"/>
<path d="M21.4043 6.8V21.2" stroke="white" stroke-linecap="round"/>
<path d="M13.234 6.8L13.234 21.2" stroke="white" stroke-linecap="round"/>
</svg>
