<svg width="268" height="65" viewBox="0 0 268 65" fill="none" xmlns="http://www.w3.org/2000/svg">
<path d="M68.7102 40H63.0284L65.4432 25.4545H70.8977C72.3939 25.4545 73.6439 25.7552 74.6477 26.3565C75.6515 26.9579 76.3641 27.8172 76.7855 28.9347C77.2069 30.0521 77.2898 31.3826 77.0341 32.9261C76.7879 34.4129 76.2884 35.6842 75.5355 36.7401C74.7874 37.7959 73.831 38.6032 72.6662 39.1619C71.5062 39.7206 70.1875 40 68.7102 40ZM67.5312 36.6477H68.9659C69.6856 36.6477 70.3272 36.5223 70.8906 36.2713C71.4588 36.0156 71.9323 35.5895 72.3111 34.9929C72.6946 34.3916 72.9716 33.5701 73.142 32.5284C73.303 31.5436 73.2983 30.7836 73.1278 30.2486C72.9574 29.7088 72.633 29.3348 72.1548 29.1264C71.6766 28.9134 71.0587 28.8068 70.3011 28.8068H68.8381L67.5312 36.6477ZM82.9521 40.1989C81.7873 40.1989 80.8214 39.9763 80.0543 39.5312C79.2873 39.0814 78.7475 38.4375 78.435 37.5994C78.1225 36.7566 78.0657 35.7481 78.2646 34.5739C78.454 33.447 78.8446 32.4621 79.4364 31.6193C80.033 30.7765 80.7835 30.1207 81.6879 29.652C82.5969 29.1832 83.6149 28.9489 84.7418 28.9489C85.5657 28.9489 86.2878 29.0767 86.908 29.3324C87.533 29.5881 88.042 29.9598 88.435 30.4474C88.828 30.9351 89.0932 31.5246 89.2305 32.2159C89.3725 32.9025 89.3725 33.679 89.2305 34.5455L89.0884 35.4545H79.3441L79.685 33.2955H85.8214C85.8687 32.983 85.8379 32.7083 85.729 32.4716C85.6249 32.2301 85.4568 32.0431 85.2248 31.9105C84.9975 31.7732 84.7229 31.7045 84.4009 31.7045C84.079 31.7045 83.7759 31.7732 83.4918 31.9105C83.2125 32.0478 82.9734 32.2396 82.7745 32.4858C82.5804 32.732 82.4502 33.0208 82.3839 33.3523L81.9577 35.625C81.9009 35.9754 81.9222 36.2879 82.0217 36.5625C82.1211 36.8371 82.2939 37.0526 82.5401 37.2088C82.7863 37.3651 83.1036 37.4432 83.4918 37.4432C83.757 37.4432 84.0079 37.4077 84.2447 37.3366C84.4862 37.2609 84.6992 37.152 84.8839 37.0099C85.0733 36.8632 85.2248 36.6856 85.3384 36.4773H88.918C88.6623 37.2348 88.2575 37.893 87.7035 38.4517C87.1542 39.0057 86.4772 39.4366 85.6722 39.7443C84.872 40.0473 83.9653 40.1989 82.9521 40.1989ZM95.1484 40.1989C93.9647 40.1989 92.9893 39.9645 92.2223 39.4957C91.4553 39.0223 90.9179 38.3641 90.6101 37.5213C90.3023 36.6738 90.2431 35.6913 90.4325 34.5739C90.6125 33.4564 90.996 32.4763 91.5831 31.6335C92.175 30.786 92.9325 30.1278 93.8558 29.6591C94.7839 29.1856 95.8397 28.9489 97.0234 28.9489C98.0935 28.9489 98.986 29.143 99.701 29.5312C100.421 29.9148 100.934 30.4593 101.242 31.1648C101.555 31.8655 101.635 32.6894 101.484 33.6364H97.8473C97.8899 33.0682 97.7976 32.6326 97.5703 32.3295C97.3478 32.0265 97.0234 31.875 96.5973 31.875C96.2469 31.875 95.925 31.9744 95.6314 32.1733C95.3426 32.3674 95.094 32.6634 94.8857 33.0611C94.6821 33.4541 94.5329 33.9489 94.4382 34.5455C94.3435 35.142 94.3317 35.6392 94.4027 36.0369C94.4785 36.4299 94.6252 36.7259 94.843 36.9247C95.0656 37.1188 95.3473 37.2159 95.6882 37.2159C95.9818 37.2159 96.2517 37.1496 96.4979 37.017C96.7488 36.8797 96.9643 36.6809 97.1442 36.4205C97.3288 36.1553 97.4685 35.8333 97.5632 35.4545H101.2C101.02 36.4205 100.657 37.2585 100.113 37.9688C99.5684 38.679 98.8748 39.2282 98.032 39.6165C97.1892 40.0047 96.228 40.1989 95.1484 40.1989ZM107.277 40.1989C106.094 40.1989 105.118 39.9645 104.351 39.4957C103.589 39.0223 103.054 38.3641 102.746 37.5213C102.438 36.6738 102.377 35.6913 102.561 34.5739C102.746 33.4564 103.132 32.4763 103.719 31.6335C104.306 30.786 105.061 30.1278 105.985 29.6591C106.908 29.1856 107.964 28.9489 109.152 28.9489C110.331 28.9489 111.302 29.1856 112.064 29.6591C112.831 30.1278 113.369 30.786 113.676 31.6335C113.989 32.4763 114.053 33.4564 113.868 34.5739C113.684 35.6913 113.295 36.6738 112.703 37.5213C112.112 38.3641 111.354 39.0223 110.431 39.4957C109.512 39.9645 108.461 40.1989 107.277 40.1989ZM107.76 37.3011C108.101 37.3011 108.411 37.1899 108.691 36.9673C108.975 36.7448 109.216 36.4276 109.415 36.0156C109.619 35.6037 109.768 35.1136 109.863 34.5455C109.957 33.9725 109.971 33.4825 109.905 33.0753C109.839 32.6634 109.702 32.3461 109.493 32.1236C109.285 31.901 109.01 31.7898 108.669 31.7898C108.328 31.7898 108.016 31.901 107.732 32.1236C107.448 32.3461 107.206 32.6634 107.007 33.0753C106.809 33.4825 106.662 33.9725 106.567 34.5455C106.472 35.1136 106.456 35.6037 106.517 36.0156C106.584 36.4276 106.721 36.7448 106.929 36.9673C107.142 37.1899 107.419 37.3011 107.76 37.3011ZM119.522 33.8636L118.499 40H114.578L116.397 29.0909H120.118L119.777 31.1648H119.891C120.237 30.4687 120.741 29.9266 121.404 29.5384C122.071 29.1454 122.808 28.9489 123.613 28.9489C124.384 28.9489 125.026 29.1241 125.537 29.4744C126.049 29.8248 126.411 30.3078 126.624 30.9233C126.837 31.5388 126.875 32.2443 126.738 33.0398L125.573 40H121.652L122.675 33.8636C122.765 33.3239 122.699 32.9001 122.476 32.5923C122.258 32.2846 121.899 32.1307 121.397 32.1307C121.079 32.1307 120.788 32.2017 120.523 32.3438C120.263 32.4811 120.045 32.6799 119.87 32.9403C119.699 33.196 119.583 33.5038 119.522 33.8636ZM132.679 40.1989C131.514 40.1989 130.548 39.9763 129.781 39.5312C129.014 39.0814 128.474 38.4375 128.162 37.5994C127.849 36.7566 127.792 35.7481 127.991 34.5739C128.181 33.447 128.571 32.4621 129.163 31.6193C129.76 30.7765 130.51 30.1207 131.414 29.652C132.324 29.1832 133.342 28.9489 134.468 28.9489C135.292 28.9489 136.014 29.0767 136.635 29.3324C137.26 29.5881 137.769 29.9598 138.162 30.4474C138.555 30.9351 138.82 31.5246 138.957 32.2159C139.099 32.9025 139.099 33.679 138.957 34.5455L138.815 35.4545H129.071L129.412 33.2955H135.548C135.595 32.983 135.565 32.7083 135.456 32.4716C135.351 32.2301 135.183 32.0431 134.951 31.9105C134.724 31.7732 134.449 31.7045 134.127 31.7045C133.806 31.7045 133.502 31.7732 133.218 31.9105C132.939 32.0478 132.7 32.2396 132.501 32.4858C132.307 32.732 132.177 33.0208 132.11 33.3523L131.684 35.625C131.627 35.9754 131.649 36.2879 131.748 36.5625C131.848 36.8371 132.02 37.0526 132.267 37.2088C132.513 37.3651 132.83 37.4432 133.218 37.4432C133.484 37.4432 133.734 37.4077 133.971 37.3366C134.213 37.2609 134.426 37.152 134.61 37.0099C134.8 36.8632 134.951 36.6856 135.065 36.4773H138.645C138.389 37.2348 137.984 37.893 137.43 38.4517C136.881 39.0057 136.204 39.4366 135.399 39.7443C134.599 40.0473 133.692 40.1989 132.679 40.1989ZM144.875 40.1989C143.691 40.1989 142.716 39.9645 141.949 39.4957C141.182 39.0223 140.644 38.3641 140.337 37.5213C140.029 36.6738 139.97 35.6913 140.159 34.5739C140.339 33.4564 140.723 32.4763 141.31 31.6335C141.902 30.786 142.659 30.1278 143.582 29.6591C144.51 29.1856 145.566 28.9489 146.75 28.9489C147.82 28.9489 148.713 29.143 149.428 29.5312C150.147 29.9148 150.661 30.4593 150.969 31.1648C151.281 31.8655 151.362 32.6894 151.21 33.6364H147.574C147.616 33.0682 147.524 32.6326 147.297 32.3295C147.074 32.0265 146.75 31.875 146.324 31.875C145.973 31.875 145.652 31.9744 145.358 32.1733C145.069 32.3674 144.821 32.6634 144.612 33.0611C144.409 33.4541 144.259 33.9489 144.165 34.5455C144.07 35.142 144.058 35.6392 144.129 36.0369C144.205 36.4299 144.352 36.7259 144.57 36.9247C144.792 37.1188 145.074 37.2159 145.415 37.2159C145.708 37.2159 145.978 37.1496 146.224 37.017C146.475 36.8797 146.691 36.6809 146.871 36.4205C147.055 36.1553 147.195 35.8333 147.29 35.4545H150.926C150.746 36.4205 150.384 37.2585 149.839 37.9688C149.295 38.679 148.601 39.2282 147.759 39.6165C146.916 40.0047 145.955 40.1989 144.875 40.1989ZM160.1 29.0909L159.618 31.9318H152.43L152.913 29.0909H160.1ZM154.731 26.4773H158.652L156.99 36.4915C156.966 36.643 156.971 36.7708 157.004 36.875C157.037 36.9744 157.103 37.0502 157.203 37.1023C157.307 37.1496 157.444 37.1733 157.615 37.1733C157.728 37.1733 157.868 37.1591 158.034 37.1307C158.199 37.0975 158.325 37.0739 158.41 37.0597L158.524 39.8153C158.325 39.8722 158.057 39.9361 157.721 40.0071C157.39 40.0829 157.004 40.1326 156.564 40.1562C155.645 40.1989 154.897 40.1018 154.319 39.8651C153.746 39.6283 153.349 39.259 153.126 38.7571C152.908 38.2505 152.87 37.6184 153.012 36.8608L154.731 26.4773ZM162.893 40.1705C162.202 40.1705 161.608 40.0568 161.111 39.8295C160.618 39.5975 160.259 39.2472 160.031 38.7784C159.809 38.3049 159.759 37.7083 159.882 36.9886C159.982 36.392 160.169 35.883 160.443 35.4616C160.718 35.0402 161.059 34.6946 161.466 34.4247C161.873 34.1548 162.33 33.9489 162.837 33.8068C163.348 33.66 163.888 33.5653 164.456 33.5227C165.071 33.4754 165.571 33.4162 165.955 33.3452C166.338 33.2741 166.625 33.1771 166.814 33.054C167.003 32.9309 167.117 32.7652 167.155 32.5568V32.5284C167.197 32.2443 167.122 32.0265 166.928 31.875C166.738 31.7235 166.473 31.6477 166.132 31.6477C165.763 31.6477 165.443 31.7282 165.173 31.8892C164.908 32.0502 164.726 32.3011 164.626 32.642H161.018C161.17 31.9792 161.48 31.3684 161.949 30.8097C162.422 30.2462 163.05 29.7964 163.831 29.4602C164.617 29.1193 165.554 28.9489 166.643 28.9489C167.42 28.9489 168.102 29.0412 168.689 29.2259C169.276 29.4058 169.761 29.6591 170.145 29.9858C170.533 30.3078 170.805 30.6866 170.962 31.1222C171.123 31.553 171.161 32.0218 171.075 32.5284L169.825 40H166.161L166.416 38.4659H166.331C166.047 38.8731 165.727 39.2022 165.372 39.4531C165.022 39.7041 164.638 39.8864 164.222 40C163.81 40.1136 163.367 40.1705 162.893 40.1705ZM164.598 37.6989C164.892 37.6989 165.18 37.6373 165.464 37.5142C165.749 37.3911 165.992 37.2135 166.196 36.9815C166.4 36.7495 166.53 36.4678 166.587 36.1364L166.729 35.2273C166.625 35.2699 166.509 35.3101 166.381 35.348C166.258 35.3812 166.127 35.4143 165.99 35.4474C165.857 35.4806 165.715 35.5114 165.564 35.5398C165.417 35.5682 165.266 35.5966 165.109 35.625C164.797 35.6723 164.534 35.7505 164.321 35.8594C164.108 35.9635 163.942 36.0938 163.824 36.25C163.705 36.4015 163.632 36.572 163.604 36.7614C163.561 37.0597 163.63 37.2917 163.81 37.4574C163.994 37.6184 164.257 37.6989 164.598 37.6989ZM171.699 40L173.517 29.0909H177.324L176.983 31.1648H177.096C177.423 30.3977 177.833 29.8366 178.325 29.4815C178.817 29.1264 179.355 28.9489 179.937 28.9489C180.108 28.9489 180.271 28.9631 180.427 28.9915C180.588 29.0152 180.747 29.0483 180.903 29.0909L180.335 32.4432C180.15 32.3722 179.921 32.3224 179.646 32.294C179.371 32.2609 179.127 32.2443 178.914 32.2443C178.536 32.2443 178.181 32.3319 177.849 32.5071C177.522 32.6776 177.243 32.919 177.011 33.2315C176.784 33.5393 176.632 33.9015 176.556 34.3182L175.619 40H171.699ZM184.944 40.1989C183.779 40.1989 182.814 39.9763 182.047 39.5312C181.279 39.0814 180.74 38.4375 180.427 37.5994C180.115 36.7566 180.058 35.7481 180.257 34.5739C180.446 33.447 180.837 32.4621 181.429 31.6193C182.025 30.7765 182.776 30.1207 183.68 29.652C184.589 29.1832 185.607 28.9489 186.734 28.9489C187.558 28.9489 188.28 29.0767 188.9 29.3324C189.525 29.5881 190.034 29.9598 190.427 30.4474C190.82 30.9351 191.085 31.5246 191.223 32.2159C191.365 32.9025 191.365 33.679 191.223 34.5455L191.081 35.4545H181.336L181.677 33.2955H187.814C187.861 32.983 187.83 32.7083 187.721 32.4716C187.617 32.2301 187.449 32.0431 187.217 31.9105C186.99 31.7732 186.715 31.7045 186.393 31.7045C186.071 31.7045 185.768 31.7732 185.484 31.9105C185.205 32.0478 184.966 32.2396 184.767 32.4858C184.573 32.732 184.442 33.0208 184.376 33.3523L183.95 35.625C183.893 35.9754 183.914 36.2879 184.014 36.5625C184.113 36.8371 184.286 37.0526 184.532 37.2088C184.779 37.3651 185.096 37.4432 185.484 37.4432C185.749 37.4432 186 37.4077 186.237 37.3366C186.478 37.2609 186.691 37.152 186.876 37.0099C187.065 36.8632 187.217 36.6856 187.331 36.4773H190.91C190.654 37.2348 190.25 37.893 189.696 38.4517C189.146 39.0057 188.469 39.4366 187.664 39.7443C186.864 40.0473 185.958 40.1989 184.944 40.1989Z" fill="#3E57B2"/>
<path fill-rule="evenodd" clip-rule="evenodd" d="M9.00006 22C9.00006 20.8954 9.89549 20 11.0001 20H22.0001C23.1046 20 24.0001 20.8954 24.0001 22V42.5337C24.0001 42.9318 23.8837 43.3028 23.6832 43.6144C23.0855 44.5433 22.0001 43.6382 22.0001 42.5337V23.0445C22.0001 22.4922 21.5523 22.0445 21.0001 22.0445H12.0001C11.4478 22.0445 11.0001 22.4922 11.0001 23.0445V28.1779H9.00006V22ZM9.00006 35.3335V42.5337C9.00006 42.9318 9.1164 43.3028 9.31695 43.6144C9.91465 44.5433 11.0001 43.6382 11.0001 42.5337V35.3335H9.00006Z" fill="#3E57B2"/>
<path d="M0.562159 32.1612C0.285506 31.9617 0.285507 31.5498 0.56216 31.3502L5.95749 27.4583C6.28818 27.2198 6.75 27.4561 6.75 27.8638L6.75 35.6476C6.75 36.0553 6.28818 36.2916 5.95749 36.0531L0.562159 32.1612Z" fill="#3E57B2"/>
<path fill-rule="evenodd" clip-rule="evenodd" d="M6.00006 34.3113H16.0001C16.5523 34.3113 17.0001 33.8636 17.0001 33.3113V30.2001C17.0001 29.6478 16.5523 29.2001 16.0001 29.2001H6.00006V34.3113Z" fill="#3E57B2"/>
</svg>
