<svg width="160" height="79" viewBox="0 0 160 79" fill="none" xmlns="http://www.w3.org/2000/svg">
<path d="M18.9062 36.9777L2.01237 41.115C1.72532 41.1853 1.7763 41.6078 2.07183 41.6078H18.9657C19.1038 41.6078 19.2157 41.4959 19.2157 41.3578V37.2206C19.2157 37.0584 19.0637 36.9392 18.9062 36.9777Z" fill="#A3742F"/>
<path d="M40.7016 36.9777L57.5955 41.115C57.8825 41.1853 57.8315 41.6078 57.536 41.6078H40.6422C40.5041 41.6078 40.3922 41.4959 40.3922 41.3578V37.2206C40.3922 37.0584 40.5441 36.9392 40.7016 36.9777Z" fill="#A3742F"/>
<path d="M44.7059 3.5C45.5343 3.5 46.2059 2.82843 46.2059 2C46.2059 1.17157 45.5343 0.5 44.7059 0.5V3.5ZM31.3039 20.8235C31.3039 14.5884 33.8589 10.2671 36.8307 7.48768C38.327 6.08819 39.9313 5.079 41.3694 4.42385C42.8357 3.75583 44.0304 3.5 44.7059 3.5V0.5C43.4496 0.5 41.8156 0.923905 40.1257 1.6938C38.4074 2.47656 36.5277 3.66344 34.7815 5.29664C31.2681 8.58258 28.3039 13.673 28.3039 20.8235H31.3039Z" fill="#AC9237"/>
<path d="M16.4706 14.9412C9.34204 14.9412 1.4956 19.2486 0.829839 26.4897C0.779274 27.0397 1.23141 27.4872 1.78255 27.5226C10.2346 28.0663 20.3921 35.4055 20.3921 47.098C20.3921 58.8257 10.9032 66.9039 1.7835 67.4596C1.23224 67.4932 0.774034 67.9435 0.899927 68.4813C2.17639 73.9336 13.8962 78.4706 29.8039 78.4706C45.6529 78.4706 57.3448 73.6207 58.6933 68.4792C58.8334 67.9449 58.3731 67.4927 57.8214 67.4671C45.5383 66.8971 39.2157 55.8818 39.2157 47.098C39.2157 38.3287 46.2589 28.0766 57.8225 27.5144C58.3741 27.4876 58.8283 27.0393 58.7819 26.489C58.114 18.5588 49.5403 14.9412 43.1372 14.9412C37.5791 14.9412 32.8387 17.667 30.7341 19.4826C30.2293 19.918 29.3885 19.9103 28.9001 19.4566C26.9456 17.6412 22.6531 14.9412 16.4706 14.9412Z" fill="#78EE41" stroke="#46C30B"/>
<rect x="0.892151" y="41.7157" width="57.8235" height="11.549" rx="1.5" fill="#E6AE41" stroke="#A3742F"/>
<path d="M27.968 47.1023C27.9604 47.0019 27.9396 46.9138 27.9055 46.8381C27.8714 46.7604 27.8231 46.6951 27.7606 46.642C27.6981 46.5871 27.6205 46.5464 27.5277 46.5199C27.4368 46.4915 27.3298 46.4773 27.2066 46.4773C26.9415 46.4773 26.7 46.5407 26.4822 46.6676C26.2644 46.7945 26.0816 46.9773 25.9339 47.2159C25.7881 47.4545 25.6877 47.7424 25.6328 48.0795C25.576 48.4205 25.5712 48.7121 25.6186 48.9545C25.6659 49.197 25.7682 49.3826 25.9254 49.5114C26.0845 49.6402 26.2994 49.7045 26.5703 49.7045C26.8127 49.7045 27.022 49.6695 27.1981 49.5994C27.3743 49.5294 27.5154 49.4299 27.6214 49.3011C27.7275 49.1723 27.7938 49.0208 27.8203 48.8466L28.093 48.875H26.7635L26.9453 47.75H29.5248L29.3941 48.5568C29.307 49.0871 29.1195 49.5407 28.8316 49.9176C28.5457 50.2926 28.1896 50.5805 27.7635 50.7812C27.3373 50.9801 26.8695 51.0795 26.3601 51.0795C25.7957 51.0795 25.3193 50.9593 24.9311 50.7188C24.5428 50.4782 24.2654 50.1354 24.0987 49.6903C23.9339 49.2453 23.9017 48.7159 24.0021 48.1023C24.0816 47.6212 24.2256 47.1951 24.4339 46.8239C24.6441 46.4527 24.9008 46.1392 25.2038 45.8835C25.5068 45.6259 25.8411 45.4318 26.2066 45.3011C26.5722 45.1686 26.951 45.1023 27.343 45.1023C27.6858 45.1023 27.9974 45.1515 28.2777 45.25C28.558 45.3466 28.7976 45.4848 28.9964 45.6648C29.1953 45.8428 29.344 46.054 29.4424 46.2983C29.5428 46.5426 29.5835 46.8106 29.5646 47.1023H27.968ZM35.8238 48.1932C35.7178 48.8258 35.5075 49.3561 35.1932 49.7841C34.8788 50.2121 34.4971 50.535 34.0483 50.7528C33.5994 50.9706 33.1193 51.0795 32.6079 51.0795C32.0625 51.0795 31.589 50.9612 31.1875 50.7244C30.786 50.4877 30.4933 50.1411 30.3096 49.6847C30.1259 49.2282 30.089 48.6705 30.1988 48.0114C30.3011 47.3788 30.5094 46.8466 30.8238 46.4148C31.1382 45.983 31.5217 45.6562 31.9744 45.4347C32.4271 45.2131 32.911 45.1023 33.4261 45.1023C33.9678 45.1023 34.4384 45.2216 34.838 45.4602C35.2396 45.6989 35.5312 46.0483 35.713 46.5085C35.8967 46.9687 35.9337 47.5303 35.8238 48.1932ZM34.2329 48.0114C34.286 47.678 34.2897 47.3977 34.2443 47.1705C34.1988 46.9413 34.1032 46.7689 33.9574 46.6534C33.8115 46.536 33.6155 46.4773 33.3693 46.4773C33.089 46.4773 32.8409 46.5455 32.625 46.6818C32.4091 46.8182 32.2301 47.0142 32.088 47.2699C31.946 47.5256 31.8466 47.8333 31.7897 48.1932C31.7291 48.5303 31.7235 48.8106 31.7727 49.0341C31.8238 49.2576 31.9242 49.4252 32.0738 49.5369C32.2253 49.6487 32.4223 49.7045 32.6647 49.7045C32.9413 49.7045 33.1856 49.6383 33.3977 49.5057C33.6117 49.3731 33.7888 49.1809 33.9289 48.929C34.071 48.6771 34.1723 48.3712 34.2329 48.0114Z" fill="#3E57B2"/>
<path d="M6.66669 45.0294C6.39054 45.0294 6.16669 45.2533 6.16669 45.5294C6.16669 45.8056 6.39054 46.0294 6.66669 46.0294V45.0294ZM6.66669 46.0294H20.7843V45.0294H6.66669V46.0294Z" fill="#3E57B2"/>
<path d="M9.80389 47.3824C9.52775 47.3824 9.30389 47.6062 9.30389 47.8824C9.30389 48.1585 9.52775 48.3824 9.80389 48.3824V47.3824ZM9.80389 48.3824H20.7843V47.3824H9.80389V48.3824Z" fill="#3E57B2"/>
<path d="M13.7255 49.7353C13.4493 49.7353 13.2255 49.9591 13.2255 50.2353C13.2255 50.5114 13.4493 50.7353 13.7255 50.7353V49.7353ZM13.7255 50.7353H20.7843V49.7353H13.7255V50.7353Z" fill="#3E57B2"/>
<line x1="43.2451" y1="41.2157" x2="43.2451" y2="45.1372" stroke="#A3742F"/>
<line x1="49.5196" y1="41.2157" x2="49.5196" y2="45.1372" stroke="#A3742F"/>
<line x1="55.7941" y1="41.2157" x2="55.7941" y2="45.1372" stroke="#A3742F"/>
<line x1="52.6569" y1="41.2157" x2="52.6569" y2="43.5686" stroke="#A3742F"/>
<line x1="46.3823" y1="41.2157" x2="46.3823" y2="43.5686" stroke="#A3742F"/>
<path d="M91.0159 38.549L88.3597 54.549H84.7347L80.3597 46.1428H80.2659L78.8597 54.549H74.5159L77.1722 38.549H80.8597L85.1722 46.924H85.2972L86.6722 38.549H91.0159ZM99.1331 49.299L100.258 42.549H104.571L102.571 54.549H98.4769L98.8519 52.2678H98.7269C98.3571 53.0334 97.805 53.6323 97.0706 54.0646C96.3415 54.4917 95.529 54.7053 94.6331 54.7053C93.7946 54.7053 93.0941 54.5126 92.5316 54.1271C91.9691 53.7417 91.5706 53.2105 91.3362 52.5334C91.1019 51.8563 91.055 51.0803 91.1956 50.2053L92.4769 42.549H96.7894L95.6644 49.299C95.5758 49.8928 95.6513 50.3589 95.8909 50.6974C96.1357 51.036 96.529 51.2053 97.0706 51.2053C97.43 51.2053 97.7529 51.1297 98.0394 50.9787C98.331 50.8224 98.5706 50.6037 98.7581 50.3224C98.9508 50.036 99.0758 49.6948 99.1331 49.299ZM113.92 42.549L113.389 45.674H105.483L106.014 42.549H113.92ZM108.014 39.674H112.326L110.498 50.6896C110.472 50.8563 110.478 50.9969 110.514 51.1115C110.55 51.2209 110.623 51.3042 110.733 51.3615C110.847 51.4136 110.998 51.4396 111.186 51.4396C111.311 51.4396 111.464 51.424 111.647 51.3928C111.829 51.3563 111.967 51.3303 112.061 51.3146L112.186 54.3459C111.967 54.4084 111.673 54.4787 111.303 54.5568C110.938 54.6402 110.514 54.6948 110.03 54.7209C109.019 54.7678 108.196 54.661 107.561 54.4006C106.931 54.1402 106.493 53.7339 106.248 53.1818C106.009 52.6245 105.967 51.9292 106.123 51.0959L108.014 39.674ZM113.68 54.549L115.68 42.549H119.867L119.492 44.8303H119.617C119.977 43.9865 120.427 43.3693 120.969 42.9787C121.511 42.5881 122.102 42.3928 122.742 42.3928C122.93 42.3928 123.11 42.4084 123.282 42.4396C123.459 42.4657 123.633 42.5021 123.805 42.549L123.18 46.2365C122.977 46.1584 122.724 46.1037 122.422 46.0724C122.12 46.036 121.852 46.0178 121.617 46.0178C121.201 46.0178 120.81 46.1141 120.446 46.3068C120.086 46.4943 119.779 46.7599 119.524 47.1037C119.274 47.4422 119.107 47.8407 119.024 48.299L117.992 54.549H113.68ZM123.219 54.549L125.219 42.549H129.532L127.532 54.549H123.219ZM127.563 41.299C126.979 41.299 126.508 41.1063 126.149 40.7209C125.789 40.3303 125.657 39.8667 125.75 39.3303C125.844 38.7834 126.131 38.3198 126.61 37.9396C127.089 37.5542 127.62 37.3615 128.203 37.3615C128.792 37.3615 129.261 37.5542 129.61 37.9396C129.959 38.3198 130.089 38.7834 130 39.3303C129.917 39.8667 129.636 40.3303 129.157 40.7209C128.683 41.1063 128.151 41.299 127.563 41.299ZM134.76 59.299C133.552 59.299 132.547 59.1271 131.744 58.7834C130.948 58.4448 130.359 57.9761 129.979 57.3771C129.604 56.7834 129.448 56.1011 129.51 55.3303H133.666C133.677 55.5907 133.752 55.799 133.893 55.9553C134.034 56.1115 134.229 56.2235 134.479 56.2912C134.729 56.3589 135.02 56.3928 135.354 56.3928C135.916 56.3928 136.403 56.2547 136.815 55.9787C137.226 55.7079 137.479 55.2209 137.573 54.5178L137.916 52.4865H137.791C137.573 52.8928 137.278 53.2391 136.909 53.5256C136.539 53.8068 136.114 54.023 135.635 54.174C135.156 54.3198 134.645 54.3928 134.104 54.3928C133.25 54.3928 132.497 54.1948 131.846 53.799C131.2 53.4032 130.731 52.7756 130.44 51.9162C130.153 51.0568 130.125 49.9344 130.354 48.549C130.593 47.1011 131.015 45.924 131.619 45.0178C132.224 44.1115 132.919 43.4474 133.705 43.0256C134.492 42.6037 135.281 42.3928 136.073 42.3928C136.666 42.3928 137.169 42.4969 137.58 42.7053C137.992 42.9084 138.32 43.1818 138.565 43.5256C138.81 43.8641 138.979 44.2365 139.073 44.6428H139.166L139.51 42.549H143.823L141.823 54.5178C141.666 55.5386 141.268 56.4032 140.627 57.1115C139.992 57.8251 139.169 58.3667 138.159 58.7365C137.153 59.1115 136.02 59.299 134.76 59.299ZM136.198 51.3303C136.593 51.3303 136.953 51.2209 137.276 51.0021C137.599 50.7782 137.872 50.4605 138.096 50.049C138.32 49.6323 138.479 49.1323 138.573 48.549C138.666 47.9553 138.672 47.4474 138.588 47.0256C138.505 46.5985 138.341 46.273 138.096 46.049C137.851 45.8198 137.531 45.7053 137.135 45.7053C136.739 45.7053 136.382 45.8198 136.065 46.049C135.747 46.273 135.479 46.5985 135.26 47.0256C135.041 47.4474 134.885 47.9553 134.791 48.549C134.698 49.1428 134.69 49.648 134.768 50.0646C134.846 50.4761 135.005 50.7912 135.244 51.0099C135.484 51.2235 135.802 51.3303 136.198 51.3303ZM149.766 54.7678C148.464 54.7678 147.391 54.5099 146.547 53.9943C145.709 53.4735 145.12 52.7495 144.782 51.8224C144.443 50.8902 144.375 49.8094 144.578 48.5803C144.782 47.3511 145.206 46.273 145.852 45.3459C146.498 44.4136 147.328 43.6896 148.344 43.174C149.36 42.6532 150.521 42.3928 151.828 42.3928C153.125 42.3928 154.193 42.6532 155.032 43.174C155.875 43.6896 156.466 44.4136 156.805 45.3459C157.149 46.273 157.219 47.3511 157.016 48.5803C156.813 49.8094 156.386 50.8902 155.735 51.8224C155.084 52.7495 154.25 53.4735 153.235 53.9943C152.224 54.5099 151.068 54.7678 149.766 54.7678ZM150.297 51.5803C150.672 51.5803 151.013 51.4579 151.321 51.2131C151.633 50.9683 151.899 50.6193 152.117 50.1662C152.341 49.7131 152.506 49.174 152.61 48.549C152.714 47.9188 152.729 47.3797 152.657 46.9318C152.584 46.4787 152.433 46.1297 152.203 45.8849C151.974 45.6402 151.672 45.5178 151.297 45.5178C150.922 45.5178 150.578 45.6402 150.266 45.8849C149.953 46.1297 149.688 46.4787 149.469 46.9318C149.25 47.3797 149.089 47.9188 148.985 48.549C148.881 49.174 148.862 49.7131 148.93 50.1662C149.003 50.6193 149.154 50.9683 149.383 51.2131C149.617 51.4579 149.922 51.5803 150.297 51.5803Z" fill="#3E57B2"/>
</svg>
