<svg width="76" height="100" viewBox="0 0 76 100" fill="none" xmlns="http://www.w3.org/2000/svg">
<path d="M24.1905 46.5758L2.01237 52.0072C1.72532 52.0775 1.7763 52.5 2.07183 52.5H24.25C24.3881 52.5 24.5 52.3881 24.5 52.25V46.8186C24.5 46.6565 24.348 46.5372 24.1905 46.5758Z" fill="#A3742F"/>
<path d="M51.8095 46.5758L73.9876 52.0072C74.2747 52.0775 74.2237 52.5 73.9282 52.5H51.75C51.6119 52.5 51.5 52.3881 51.5 52.25V46.8186C51.5 46.6565 51.652 46.5372 51.8095 46.5758Z" fill="#A3742F"/>
<path d="M57 3.5C57.8284 3.5 58.5 2.82843 58.5 2C58.5 1.17157 57.8284 0.5 57 0.5V3.5ZM39.5 26C39.5 17.9244 42.8139 12.3089 46.6774 8.69552C48.6196 6.87904 50.7029 5.56788 52.575 4.71502C54.4753 3.8493 56.0589 3.5 57 3.5V0.5C55.4781 0.5 53.4552 1.01737 51.3313 1.98498C49.1791 2.96545 46.8202 4.45429 44.6282 6.50448C40.2231 10.6244 36.5 17.009 36.5 26H39.5Z" fill="#AC9237"/>
<path d="M21 18.5C11.821 18.5 1.70853 24.1013 1.03553 33.5C0.996084 34.0508 1.44779 34.4976 1.99936 34.5256C12.8288 35.0764 26 44.4658 26 59.5C26 74.5706 13.7104 84.9143 1.99942 85.4759C1.44777 85.5024 0.991297 85.9508 1.09109 86.494C2.39021 93.5652 17.456 99.5 38 99.5C58.4839 99.5 73.5215 93.146 74.8971 86.4917C75.0089 85.9509 74.547 85.5019 73.9951 85.4819C58.155 84.9066 50 70.7642 50 59.5C50 48.2503 59.091 35.0866 73.9966 34.519C74.5485 34.498 75.0037 34.0514 74.9677 33.5003C74.2942 23.1966 63.2381 18.5 55 18.5C47.6601 18.5 41.4388 22.2283 38.9114 24.5338C38.4189 24.983 37.5891 24.977 37.113 24.5103C34.7591 22.2031 29.1757 18.5 21 18.5Z" fill="#78EE41" stroke="#46C30B"/>
<rect x="1" y="52.5" width="74" height="15" rx="1.5" fill="#E6AE41" stroke="#A3742F"/>
<path d="M35.2461 59.1534C35.2347 59.0028 35.2035 58.8707 35.1523 58.7571C35.1012 58.6406 35.0288 58.5426 34.935 58.4631C34.8413 58.3807 34.7248 58.3196 34.5856 58.2798C34.4492 58.2372 34.2887 58.2159 34.104 58.2159C33.7063 58.2159 33.3441 58.3111 33.0174 58.5014C32.6907 58.6918 32.4165 58.9659 32.195 59.3239C31.9762 59.6818 31.8256 60.1136 31.7433 60.6193C31.658 61.1307 31.6509 61.5682 31.7219 61.9318C31.793 62.2955 31.9464 62.5739 32.1822 62.767C32.4208 62.9602 32.7433 63.0568 33.1495 63.0568C33.5131 63.0568 33.8271 63.0043 34.0913 62.8991C34.3555 62.794 34.5671 62.6449 34.7262 62.4517C34.8853 62.2585 34.9847 62.0312 35.0245 61.7699L35.4336 61.8125H33.4393L33.712 60.125H37.5813L37.3853 61.3352C37.2546 62.1307 36.9734 62.8111 36.5415 63.3764C36.1126 63.9389 35.5785 64.3707 34.9393 64.6719C34.3001 64.9702 33.5984 65.1193 32.8342 65.1193C31.9876 65.1193 31.2731 64.9389 30.6907 64.5781C30.1083 64.2173 29.6921 63.7031 29.4421 63.0355C29.195 62.3679 29.1467 61.5739 29.2972 60.6534C29.4165 59.9318 29.6325 59.2926 29.945 58.7358C30.2603 58.179 30.6452 57.7088 31.0998 57.3253C31.5543 56.9389 32.0558 56.6477 32.604 56.4517C33.1523 56.2528 33.7205 56.1534 34.3086 56.1534C34.8228 56.1534 35.2901 56.2273 35.7106 56.375C36.131 56.5199 36.4904 56.7273 36.7887 56.9972C37.087 57.2642 37.31 57.581 37.4577 57.9474C37.6083 58.3139 37.6694 58.7159 37.641 59.1534H35.2461ZM47.0298 60.7898C46.8707 61.7386 46.5554 62.5341 46.0838 63.1761C45.6122 63.8182 45.0398 64.3026 44.3665 64.6293C43.6932 64.956 42.973 65.1193 42.206 65.1193C41.3878 65.1193 40.6776 64.9418 40.0753 64.5866C39.473 64.2315 39.0341 63.7116 38.7585 63.027C38.483 62.3423 38.4276 61.5057 38.5923 60.517C38.7457 59.5682 39.0582 58.7699 39.5298 58.1222C40.0014 57.4744 40.5767 56.9844 41.2557 56.652C41.9347 56.3196 42.6605 56.1534 43.4332 56.1534C44.2457 56.1534 44.9517 56.3324 45.5511 56.6903C46.1534 57.0483 46.5909 57.5724 46.8636 58.2628C47.1392 58.9531 47.1946 59.7955 47.0298 60.7898ZM44.6435 60.517C44.723 60.017 44.7287 59.5966 44.6605 59.2557C44.5923 58.9119 44.4489 58.6534 44.2301 58.4801C44.0114 58.304 43.7173 58.2159 43.348 58.2159C42.9276 58.2159 42.5554 58.3182 42.2315 58.5227C41.9077 58.7273 41.6392 59.0213 41.4261 59.4048C41.2131 59.7884 41.0639 60.25 40.9787 60.7898C40.8878 61.2955 40.8793 61.7159 40.9531 62.0511C41.0298 62.3864 41.1804 62.6378 41.4048 62.8054C41.6321 62.973 41.9276 63.0568 42.2912 63.0568C42.706 63.0568 43.0724 62.9574 43.3906 62.7585C43.7116 62.5597 43.9773 62.2713 44.1875 61.8935C44.4006 61.5156 44.5526 61.0568 44.6435 60.517Z" fill="#3E57B2"/>
<path d="M8.5 57C8.22386 57 8 57.2239 8 57.5C8 57.7761 8.22386 58 8.5 58V57ZM8.5 58H26.5V57H8.5V58Z" fill="#3E57B2"/>
<path d="M12.5 60C12.2239 60 12 60.2239 12 60.5C12 60.7761 12.2239 61 12.5 61V60ZM12.5 61H26.5V60H12.5V61Z" fill="#3E57B2"/>
<path d="M17.5 63C17.2239 63 17 63.2239 17 63.5C17 63.7761 17.2239 64 17.5 64V63ZM17.5 64H26.5V63H17.5V64Z" fill="#3E57B2"/>
<line x1="55" y1="52" x2="55" y2="57" stroke="#A3742F"/>
<line x1="63" y1="52" x2="63" y2="57" stroke="#A3742F"/>
<line x1="71" y1="52" x2="71" y2="57" stroke="#A3742F"/>
<line x1="67" y1="52" x2="67" y2="55" stroke="#A3742F"/>
<line x1="59" y1="52" x2="59" y2="55" stroke="#A3742F"/>
</svg>
