<svg width="268" height="65" viewBox="0 0 268 65" fill="none" xmlns="http://www.w3.org/2000/svg">
<path d="M63.0284 40L65.4432 25.4545H71.7216C72.8011 25.4545 73.7102 25.6676 74.4489 26.0938C75.1875 26.5199 75.7178 27.1188 76.0398 27.8906C76.3617 28.6624 76.4375 29.5644 76.267 30.5966C76.0966 31.6477 75.7178 32.5545 75.1307 33.3168C74.5483 34.0743 73.8049 34.6591 72.9006 35.071C72.0009 35.4782 70.9924 35.6818 69.875 35.6818H66.125L66.6364 32.6136H69.5909C70.0644 32.6136 70.4811 32.5331 70.8409 32.3722C71.2008 32.2064 71.492 31.9744 71.7145 31.6761C71.937 31.3731 72.0814 31.0133 72.1477 30.5966C72.214 30.1799 72.1832 29.8248 72.0554 29.5312C71.9323 29.233 71.7192 29.0057 71.4162 28.8494C71.1179 28.6884 70.7367 28.608 70.2727 28.608H68.8807L66.9773 40H63.0284ZM76.2102 40L78.0284 29.0909H81.8352L81.4943 31.1648H81.608C81.9347 30.3977 82.3442 29.8366 82.8366 29.4815C83.3291 29.1264 83.8665 28.9489 84.4489 28.9489C84.6193 28.9489 84.7827 28.9631 84.9389 28.9915C85.0999 29.0152 85.2585 29.0483 85.4148 29.0909L84.8466 32.4432C84.6619 32.3722 84.4323 32.3224 84.1577 32.294C83.883 32.2609 83.6392 32.2443 83.4261 32.2443C83.0473 32.2443 82.6922 32.3319 82.3608 32.5071C82.0341 32.6776 81.7547 32.919 81.5227 33.2315C81.2955 33.5393 81.1439 33.9015 81.0682 34.3182L80.1307 40H76.2102ZM89.4844 40.1989C88.3007 40.1989 87.3253 39.9645 86.5582 39.4957C85.7959 39.0223 85.2609 38.3641 84.9531 37.5213C84.6454 36.6738 84.5838 35.6913 84.7685 34.5739C84.9531 33.4564 85.339 32.4763 85.9261 31.6335C86.5133 30.786 87.2685 30.1278 88.1918 29.6591C89.1151 29.1856 90.1709 28.9489 91.3594 28.9489C92.5384 28.9489 93.509 29.1856 94.2713 29.6591C95.0384 30.1278 95.5758 30.786 95.8835 31.6335C96.196 32.4763 96.2599 33.4564 96.0753 34.5739C95.8906 35.6913 95.5024 36.6738 94.9105 37.5213C94.3187 38.3641 93.5611 39.0223 92.6378 39.4957C91.7192 39.9645 90.6681 40.1989 89.4844 40.1989ZM89.9673 37.3011C90.3082 37.3011 90.6184 37.1899 90.8977 36.9673C91.1818 36.7448 91.4233 36.4276 91.6222 36.0156C91.8258 35.6037 91.9749 35.1136 92.0696 34.5455C92.1643 33.9725 92.1785 33.4825 92.1122 33.0753C92.0459 32.6634 91.9086 32.3461 91.7003 32.1236C91.492 31.901 91.2173 31.7898 90.8764 31.7898C90.5355 31.7898 90.223 31.901 89.9389 32.1236C89.6548 32.3461 89.4134 32.6634 89.2145 33.0753C89.0156 33.4825 88.8688 33.9725 88.7741 34.5455C88.6795 35.1136 88.6629 35.6037 88.7244 36.0156C88.7907 36.4276 88.928 36.7448 89.1364 36.9673C89.3494 37.1899 89.6264 37.3011 89.9673 37.3011ZM105.124 29.0909L104.641 31.9318H97.3395L97.8224 29.0909H105.124ZM97.3821 40L99.2571 28.7784C99.4039 27.8788 99.6856 27.133 100.102 26.5412C100.524 25.9493 101.052 25.5066 101.686 25.2131C102.325 24.9195 103.04 24.7727 103.831 24.7727C104.333 24.7727 104.813 24.8106 105.273 24.8864C105.732 24.9621 106.066 25.0284 106.274 25.0852L105.251 27.8977C105.114 27.8551 104.955 27.822 104.776 27.7983C104.596 27.7699 104.432 27.7557 104.286 27.7557C103.921 27.7557 103.661 27.8338 103.504 27.9901C103.353 28.1463 103.253 28.3523 103.206 28.608L101.303 40H97.3821ZM104.804 40L106.622 29.0909H110.543L108.724 40H104.804ZM108.753 27.9545C108.223 27.9545 107.794 27.7794 107.467 27.429C107.141 27.0739 107.02 26.6525 107.105 26.1648C107.19 25.6676 107.451 25.2462 107.886 24.9006C108.322 24.5502 108.805 24.375 109.335 24.375C109.87 24.375 110.296 24.5502 110.614 24.9006C110.931 25.2462 111.049 25.6676 110.969 26.1648C110.893 26.6525 110.637 27.0739 110.202 27.429C109.771 27.7794 109.288 27.9545 108.753 27.9545ZM117.057 25.4545L114.642 40H110.722L113.137 25.4545H117.057Z" fill="#3E57B2"/>
<path fill-rule="evenodd" clip-rule="evenodd" d="M20.4852 34.5147C22.7357 36.7652 24 39.8174 24 43H12H0C0 39.8174 1.26428 36.7652 3.51477 34.5147C5.76514 32.2643 8.81738 31 12 31C15.1826 31 18.2349 32.2643 20.4852 34.5147Z" fill="#3E57B2"/>
<circle cx="12" cy="24" r="5" fill="#3E57B2"/>
</svg>
