<svg width="324" height="324" viewBox="0 0 324 324" fill="none" xmlns="http://www.w3.org/2000/svg">
<rect width="324" height="324" fill="#3E57B2"/>
<path d="M137.921 153.78L98.0124 163.553C97.7253 163.623 97.7763 164.046 98.0718 164.046H137.98C138.118 164.046 138.23 163.934 138.23 163.796V154.023C138.23 153.86 138.078 153.741 137.921 153.78Z" fill="#A3742F"/>
<path d="M185.079 153.78L224.988 163.553C225.275 163.623 225.224 164.046 224.928 164.046H185.02C184.882 164.046 184.77 163.934 184.77 163.796V154.023C184.77 153.86 184.922 153.741 185.079 153.78Z" fill="#A3742F"/>
<path d="M194.25 78.5C195.078 78.5 195.75 77.8284 195.75 77C195.75 76.1716 195.078 75.5 194.25 75.5V78.5ZM163 118.368C163 104.117 168.86 94.1598 175.716 87.7482C179.154 84.5326 182.844 82.2082 186.173 80.692C189.529 79.1629 192.418 78.5 194.25 78.5V75.5C191.837 75.5 188.509 76.331 184.929 77.9619C181.321 79.6058 177.354 82.1078 173.666 85.5571C166.269 92.4753 160 103.202 160 118.368H163Z" fill="#AC9237"/>
<path d="M132.197 105.441C116.143 105.441 98.4316 115.382 97.7443 132.016C97.7215 132.567 98.1679 133.018 98.7199 133.035C117.518 133.594 140.816 149.861 140.816 176.112C140.816 202.4 119.122 220.344 98.7223 220.914C98.1703 220.929 97.7183 221.377 97.7769 221.926C99.1116 234.427 125.399 245.059 161.5 245.059C197.537 245.059 223.795 233.65 225.216 221.925C225.282 221.377 224.819 220.929 224.267 220.917C196.489 220.334 182.184 195.698 182.184 176.112C182.184 156.54 198.148 133.607 224.269 133.031C224.821 133.019 225.278 132.565 225.257 132.013C224.569 113.754 205.192 105.441 190.803 105.441C177.414 105.441 166.185 112.637 162.376 116.509C161.908 116.984 161.096 116.98 160.643 116.491C157.056 112.615 147.138 105.441 132.197 105.441Z" fill="#78EE41" stroke="#46C30B"/>
<rect x="97.3618" y="163.684" width="128.276" height="26.5789" rx="1.5" fill="#E6AE41" stroke="#A3742F"/>
<path d="M156.91 175.164C156.891 174.913 156.839 174.692 156.754 174.503C156.669 174.309 156.548 174.146 156.392 174.013C156.235 173.876 156.041 173.774 155.809 173.708C155.582 173.637 155.315 173.601 155.007 173.601C154.344 173.601 153.74 173.76 153.196 174.077C152.651 174.394 152.194 174.851 151.825 175.448C151.46 176.044 151.209 176.764 151.072 177.607C150.93 178.459 150.918 179.188 151.037 179.794C151.155 180.4 151.411 180.864 151.804 181.186C152.201 181.508 152.739 181.669 153.416 181.669C154.022 181.669 154.545 181.582 154.985 181.406C155.426 181.231 155.779 180.983 156.044 180.661C156.309 180.339 156.475 179.96 156.541 179.524L157.223 179.595H153.899L154.353 176.783H160.802L160.475 178.8C160.258 180.126 159.789 181.26 159.069 182.202C158.354 183.139 157.464 183.859 156.399 184.361C155.333 184.858 154.164 185.107 152.89 185.107C151.479 185.107 150.288 184.806 149.318 184.205C148.347 183.603 147.654 182.746 147.237 181.634C146.825 180.521 146.744 179.198 146.995 177.664C147.194 176.461 147.554 175.396 148.075 174.468C148.6 173.54 149.242 172.756 150 172.117C150.757 171.473 151.593 170.987 152.507 170.661C153.421 170.329 154.368 170.164 155.348 170.164C156.205 170.164 156.984 170.287 157.684 170.533C158.385 170.774 158.984 171.12 159.481 171.57C159.978 172.015 160.35 172.543 160.596 173.154C160.847 173.764 160.949 174.434 160.902 175.164H156.91ZM176.55 177.891C176.285 179.472 175.759 180.798 174.973 181.868C174.187 182.938 173.233 183.745 172.111 184.29C170.989 184.835 169.788 185.107 168.51 185.107C167.146 185.107 165.963 184.811 164.959 184.219C163.955 183.627 163.223 182.761 162.764 181.62C162.305 180.478 162.213 179.084 162.487 177.436C162.743 175.855 163.264 174.524 164.05 173.445C164.836 172.365 165.795 171.549 166.926 170.995C168.058 170.441 169.268 170.164 170.555 170.164C171.91 170.164 173.086 170.462 174.085 171.058C175.089 171.655 175.818 172.529 176.273 173.679C176.732 174.83 176.824 176.234 176.55 177.891ZM172.572 177.436C172.705 176.603 172.714 175.902 172.601 175.334C172.487 174.761 172.248 174.33 171.884 174.041C171.519 173.748 171.029 173.601 170.413 173.601C169.713 173.601 169.092 173.772 168.553 174.112C168.013 174.453 167.565 174.943 167.21 175.583C166.855 176.222 166.607 176.991 166.464 177.891C166.313 178.734 166.299 179.434 166.422 179.993C166.55 180.552 166.801 180.971 167.175 181.25C167.554 181.53 168.046 181.669 168.652 181.669C169.343 181.669 169.954 181.504 170.484 181.172C171.019 180.841 171.462 180.36 171.812 179.73C172.168 179.101 172.421 178.336 172.572 177.436Z" fill="#3E57B2"/>
<path d="M110.651 172.164C110.375 172.164 110.151 172.388 110.151 172.664C110.151 172.941 110.375 173.164 110.651 173.164V172.164ZM110.651 173.164H141.678V172.164H110.651V173.164Z" fill="#3E57B2"/>
<path d="M117.546 177.336C117.27 177.336 117.046 177.559 117.046 177.836C117.046 178.112 117.27 178.336 117.546 178.336V177.336ZM117.546 178.336H141.678V177.336H117.546V178.336Z" fill="#3E57B2"/>
<path d="M126.164 182.507C125.888 182.507 125.664 182.73 125.664 183.007C125.664 183.283 125.888 183.507 126.164 183.507V182.507ZM126.164 183.507H141.678V182.507H126.164V183.507Z" fill="#3E57B2"/>
<line x1="190.441" y1="163.184" x2="190.441" y2="171.803" stroke="#A3742F"/>
<line x1="204.23" y1="163.184" x2="204.23" y2="171.803" stroke="#A3742F"/>
<line x1="218.02" y1="163.184" x2="218.02" y2="171.803" stroke="#A3742F"/>
<line x1="211.125" y1="163.184" x2="211.125" y2="168.355" stroke="#A3742F"/>
<line x1="197.336" y1="163.184" x2="197.336" y2="168.355" stroke="#A3742F"/>
</svg>
